<?xml version="1.0" encoding="utf-8"?>
<!-- Generator: Adobe Illustrator 14.0.0, SVG Export Plug-In . SVG Version: 6.00 Build 43363)  -->
<!DOCTYPE svg PUBLIC "-//W3C//DTD SVG 1.1//EN" "http://www.w3.org/Graphics/SVG/1.1/DTD/svg11.dtd">
<svg version="1.1" id="Layer_1" xmlns="http://www.w3.org/2000/svg" xmlns:xlink="http://www.w3.org/1999/xlink" x="0px" y="0px"
	 width="105px" height="105px" viewBox="0 0 105 105" style="enable-background:new 0 0 105 105;" xml:space="preserve">
<g id="Layer_1_1_">
	<g>
		<path style="fill:#FFFFFF;" d="M48.8,21.4c-0.3,0-0.9,0.2-0.9,0.6c0,0.4,0.7,0.5,1,0.4c0.3,0,0.9-0.2,0.9-0.6
			C49.8,21.5,49.1,21.4,48.8,21.4"/>
		<path style="fill:#FFFFFF;" d="M56.7,21.4c-0.3,0-0.9,0-1,0.4c0,0.4,0.6,0.6,0.9,0.6c0.3,0,0.9,0,1-0.4
			C57.7,21.6,57,21.5,56.7,21.4"/>
		<polyline style="fill:#FFFFFF;" points="51.5,22 54.1,22 54.1,21.1 51.5,21.1 51.5,22 		"/>
		<path style="fill:#FFFFFF;" d="M15.2,85.2c0.4,0,1.2,0.1,1.5,1.1l1.3-0.2c-0.3-1.5-1.7-2-3.1-2c-1.4,0.1-2.6,0.9-3,2.3
			c-0.3,1.2-0.1,2.7,0.8,3.7c1.2,1.2,3.2,1.1,4.6,0.4c0.3-0.1,0.6-0.3,0.8-0.5v-2.7h-2.9v1.1h1.6v0.9c-0.8,0.7-2.2,0.9-3,0
			c-0.7-0.8-0.7-2.4-0.2-3.3C14.1,85.4,14.6,85.2,15.2,85.2"/>
		<path style="fill:#FFFFFF;" d="M25.7,87.6c0-1.4-0.6-2.7-1.9-3.2c-1.3-0.5-3-0.3-3.9,0.8c-0.8,1-0.9,2.6-0.6,3.8
			c0.4,1.4,1.7,2.1,3.1,2.1c1,0,1.9-0.3,2.5-1.1C25.5,89.3,25.7,88.5,25.7,87.6 M22.4,89.9c-0.8,0-1.3-0.4-1.5-0.9
			c-0.5-0.8-0.5-2.2,0-3c0.6-0.9,2.1-1,2.8-0.2c0.6,0.7,0.7,1.9,0.4,2.7C24,89.3,23.3,89.9,22.4,89.9"/>
		<polyline style="fill:#FFFFFF;" points="31.9,84.2 30.4,84.2 28.8,89.2 28.8,89.2 27.1,84.2 25.6,84.2 28,90.9 29.5,90.9 
			31.9,84.2 		"/>
		<polyline style="fill:#FFFFFF;" points="37.6,85.4 37.6,84.2 32.6,84.2 32.6,90.9 37.7,90.9 37.7,89.8 33.9,89.8 33.9,88 37.3,88 
			37.3,86.8 33.9,86.8 33.9,85.4 37.6,85.4 		"/>
		<path style="fill:#FFFFFF;" d="M43.3,90.9h1.6L44,89.6c-0.7-1.1-0.9-1.3-1.5-1.7v0c0.9-0.1,1.6-0.7,1.8-1.6c0.1-0.8-0.3-1.7-1.1-2
			c-0.2-0.1-0.6-0.2-1.6-0.2h-2.9v6.8h0h1.3v-2.8h0.3c0.9,0,1,0.1,1.8,1.3L43.3,90.9 M41.3,87h-1v-1.7h1c0.9,0,1.1,0,1.3,0.1
			c0.6,0.3,0.4,1.3-0.2,1.5C42.2,87,41.7,87,41.3,87"/>
		<polyline style="fill:#FFFFFF;" points="51,84.2 49.7,84.2 49.7,88.7 49.7,88.7 47,84.2 45.7,84.2 45.7,90.9 46.9,90.9 46.9,86.6 
			49.6,90.9 51,90.9 51,84.2 		"/>
		<polyline style="fill:#FFFFFF;" points="58.9,90.9 58.9,84.2 56.8,84.2 55.6,88.8 54.4,84.2 52.4,84.2 52.4,90.9 53.6,90.9 
			53.6,85.6 53.7,85.6 55,90.9 56.3,90.9 57.6,85.6 57.6,85.6 57.6,90.9 58.9,90.9 		"/>
		<polyline style="fill:#FFFFFF;" points="65.3,85.4 65.3,84.2 60.3,84.2 60.3,90.9 65.4,90.9 65.4,89.8 61.6,89.8 61.6,88 65,88 
			65,86.8 61.6,86.8 61.6,85.4 65.3,85.4 		"/>
		<polyline style="fill:#FFFFFF;" points="70.6,88.7 67.9,84.2 66.6,84.2 66.6,90.9 67.8,90.9 67.8,86.6 67.8,86.6 70.5,90.9 
			71.9,90.9 71.9,84.2 70.6,84.2 70.6,88.7 70.6,88.7 		"/>
		<polyline style="fill:#FFFFFF;" points="78.1,84.2 72.8,84.2 72.8,85.4 74.8,85.4 74.8,90.9 76.1,90.9 76.1,85.4 78.1,85.4 
			78.1,84.2 		"/>
		<path style="fill:#FFFFFF;" d="M81.4,87.6c0,1.2,0.5,2.5,1.6,3.1c1.3,0.7,3.2,0.5,4.1-0.6c0.9-1,1-2.7,0.6-3.9
			c-0.5-1.4-1.8-2.1-3.2-2c-0.9,0-1.7,0.3-2.3,1S81.4,86.7,81.4,87.6 M86.5,87.6c0,0.9-0.3,1.9-1.2,2.2c-0.8,0.3-1.8,0.1-2.2-0.7
			c-0.7-1.1-0.5-3.2,0.9-3.7c0.7-0.2,1.6-0.1,2.1,0.6C86.4,86.4,86.5,87,86.5,87.6"/>
		<polyline style="fill:#FFFFFF;" points="93.6,85.4 93.6,84.2 89,84.2 89,90.9 90.3,90.9 90.3,88.1 93.1,88.1 93.1,86.9 90.3,86.9 
			90.3,85.4 93.6,85.4 		"/>
		<polyline style="fill:#FFFFFF;" points="7.5,100.1 7.5,100.1 6.3,95.4 4.7,95.4 3.5,100 3.4,100 2.4,95.4 1.1,95.4 2.6,102.1 
			4.1,102.1 5.5,97.1 6.8,102.1 8.3,102.1 9.9,95.4 8.5,95.4 7.5,100.1 		"/>
		<polyline style="fill:#FFFFFF;" points="11.9,99.2 15.3,99.2 15.3,98 11.9,98 11.9,96.5 15.6,96.5 15.6,95.4 10.6,95.4 
			10.6,102.1 15.7,102.1 15.7,101 11.9,101 11.9,99.2 		"/>
		<path style="fill:#FFFFFF;" d="M19.6,97.9c-0.4-0.1-1.1-0.2-1.4-0.5c-0.3-0.3,0-0.7,0.3-0.9c0.4-0.2,1-0.2,1.4,0
			c0.3,0.2,0.4,0.5,0.5,0.8l1.4-0.1c-0.1-1.7-1.8-2.2-3.2-2c-1.1,0.2-2.1,1.1-1.7,2.3c0.4,1.3,2,1.4,3.1,1.8c0.5,0.2,0.9,0.4,0.7,1
			c-0.2,0.7-1.2,0.8-1.8,0.6c-0.6-0.2-0.8-0.7-0.9-1.2l-1.3,0.1c0.1,1,0.7,1.9,1.7,2.2c0.8,0.2,1.9,0.2,2.7-0.2
			c1-0.4,1.4-1.9,0.9-2.8C21.3,98.3,20.4,98.1,19.6,97.9"/>
		<polyline style="fill:#FFFFFF;" points="22.6,96.5 24.6,96.5 24.6,102.1 26,102.1 26,96.5 28,96.5 28,95.4 22.6,95.4 22.6,96.5 		
			"/>
		<polyline style="fill:#FFFFFF;" points="30.2,99.2 33.6,99.2 33.6,98 30.2,98 30.2,96.5 33.9,96.5 33.9,95.4 28.9,95.4 
			28.9,102.1 34,102.1 34,101 30.2,101 30.2,99.2 		"/>
		<path style="fill:#FFFFFF;" d="M38.8,99.1L38.8,99.1c0.9-0.1,1.6-0.7,1.8-1.6c0.1-0.8-0.3-1.7-1.1-2c-0.2-0.1-0.6-0.2-1.6-0.2
			h-2.9v6.8h0h1.3v-2.8h0.3c0.9,0,1,0.1,1.8,1.3l1,1.4h1.6l-0.8-1.3C39.7,99.7,39.4,99.5,38.8,99.1 M37.5,98.2h-1v-1.7h1.1
			c0.9,0,1.1,0,1.3,0.1c0.6,0.3,0.4,1.3-0.2,1.5C38.5,98.2,37.9,98.2,37.5,98.2"/>
		<polyline style="fill:#FFFFFF;" points="46,99.9 46,99.9 43.3,95.4 41.9,95.4 41.9,102.1 43.2,102.1 43.2,97.7 43.3,97.7 
			45.9,102.1 47.3,102.1 47.3,95.4 46,95.4 46,99.9 		"/>
		<path style="fill:#FFFFFF;" d="M53.3,95.4l-2.6,6.7h1.4l0.6-1.5h2.7l0.6,1.5h1.5l-2.7-6.7H53.3 M53.1,99.5l0.9-2.5l0.9,2.5H53.1"
			/>
		<path style="fill:#FFFFFF;" d="M61.7,99.1c0,0.6,0.1,1.4-0.5,1.8c-0.6,0.4-1.7,0.3-2-0.4C59,100.1,59,99.8,59,99v-3.6v0h-1.3v3.6
			c0,0.7,0,1.3,0.2,2c0.3,0.7,1,1.1,1.7,1.2c0.9,0.1,2.1,0.1,2.8-0.6c0.7-0.7,0.6-1.8,0.6-2.7v-3.5h-1.3V99.1"/>
		<path style="fill:#FFFFFF;" d="M67.2,97.9c-0.4-0.1-1.1-0.2-1.4-0.5c-0.3-0.3,0-0.7,0.3-0.9c0.4-0.2,1-0.2,1.4,0
			c0.3,0.2,0.4,0.5,0.5,0.8l1.4-0.1c-0.1-1.7-1.8-2.2-3.2-2c-1.1,0.2-2.1,1.1-1.7,2.3c0.4,1.3,2,1.4,3.1,1.8c0.5,0.2,0.9,0.4,0.7,1
			c-0.2,0.7-1.2,0.8-1.8,0.6c-0.6-0.2-0.8-0.7-0.9-1.2l-1.3,0.1c0.1,1,0.7,1.9,1.7,2.2c0.8,0.2,1.9,0.2,2.7-0.2
			c1-0.4,1.4-1.9,0.9-2.8C68.9,98.3,68,98.1,67.2,97.9"/>
		<polyline style="fill:#FFFFFF;" points="70.2,96.5 72.2,96.5 72.2,102.1 73.6,102.1 73.6,96.5 75.5,96.5 75.5,95.4 70.2,95.4 
			70.2,96.5 		"/>
		<path style="fill:#FFFFFF;" d="M80.1,99.1L80.1,99.1c0.9-0.1,1.7-0.7,1.8-1.6c0.1-0.8-0.3-1.7-1.1-2c-0.2-0.1-0.6-0.2-1.6-0.2
			h-2.9v6.8h0h1.3v-2.8H78c0.9,0,1,0.1,1.8,1.3l1,1.4h1.6l-0.8-1.3C80.9,99.7,80.7,99.5,80.1,99.1 M78.8,98.2h-1v-1.7h1
			c0.9,0,1.1,0,1.3,0.1c0.6,0.3,0.4,1.3-0.2,1.5C79.8,98.2,79.3,98.2,78.8,98.2"/>
		<path style="fill:#FFFFFF;" d="M85.1,95.4l-2.6,6.7H84l0.6-1.5h2.7l0.6,1.5h1.5l-2.7-6.7H85.1 M84.9,99.5l0.9-2.5l0.9,2.5H84.9"/>
		<polyline style="fill:#FFFFFF;" points="91.4,95.4 90,95.4 90,102.1 94.7,102.1 94.7,101 91.4,101 91.4,95.4 		"/>
		<polyline style="fill:#FFFFFF;" points="95.7,102.1 97,102.1 97,95.4 95.7,95.4 95.7,102.1 		"/>
		<path style="fill:#FFFFFF;" d="M100.3,95.4l-2.6,6.7h1.4l0.6-1.5h2.7l0.6,1.5h1.5l-2.7-6.7H100.3 M100.1,99.5l0.9-2.5l0.9,2.5
			H100.1"/>
		<path style="fill:#FFFFFF;" d="M66.7,52.1c-0.1,0-0.2,0.3-0.3,0.3c-0.3,0.4-0.6,0.7-1,0.9c0,0-0.1,0.1-0.1,0.1
			c0,0,0.1-0.2,0.1-0.3c0-0.1,0.1-0.8,0-0.8c0,0-0.2,0.2-0.2,0.3c-0.1,0.1-0.3,0.2-0.4,0.3c-0.2,0.1,0-0.2,0-0.3
			c0-0.3,0-0.5-0.1-0.7c0-0.1-0.1-0.3-0.2-0.4l-0.1-0.1c-0.1,0,0,0.2,0,0.2c-0.1,0.2-0.3,0.5-0.4,0.6c-0.1,0.1,0-0.1,0-0.2
			c0-0.2,0-0.4,0-0.6c-0.1-0.3-0.3-0.6-0.6-0.9c-0.1-0.2-0.1,0-0.1,0.1c0,0.3-0.2,0.7-0.3,0.9c0,0-0.1,0.1-0.1,0.1c0,0,0-0.2,0-0.3
			c0-0.1,0-0.3-0.1-0.4c0,0-0.1-0.3-0.2-0.3c0,0,0,0.2-0.1,0.2c0,0-0.1,0.2-0.1,0.2s0-0.2,0-0.2c-0.1-0.5-0.3-0.9-0.7-1.3
			c-0.5-0.6-0.2,0.6-0.4,0.7c0,0-0.2-0.2-0.3-0.2c0,0-0.3,0-0.3,0.1c0,0,0.1-0.3,0.1-0.3c0-0.4-0.1-0.9-0.3-1.2c0,0-0.2-0.3-0.3-0.2
			c0,0-0.1,0.2-0.1,0.3c-0.1,0.2-0.1,0.4-0.2,0.6c0,0-0.1,0.2-0.2,0.2c-0.1-0.1,0-0.2,0-0.3c-0.1-0.6-0.6-1.1-1.2-1.2
			c-0.1,0-0.2,0-0.2,0c0,0,0.1,0.2,0.1,0.2c0.1,0.3-0.1,0.8-0.3,0.9c0,0-0.2,0.1-0.3,0.1c0,0,0-0.1-0.1-0.2
			c-0.2-0.3-0.7-0.7-1.2-0.7c0,0-0.2,0-0.2,0c0,0.1,0.2,0.1,0.2,0.1c0.2,0.2-0.2,0.7-0.3,0.8c-0.3,0.2-0.8,0.4-1.2,0.5
			c-0.9,0.3-1.7,0.7-2.6,1.2c-0.8,0.6-1.4,1.4-2,2.1c-0.5,0.7-0.8,1.5-1.4,2.1c-0.5,0.6-1.3,0.7-2,0.2c-0.7-0.5-0.8-1.5-0.6-2.3
			c0.2-1,0.6-2,0.8-3c0.6-1.9,1.2-3.8,1.6-5.7c0.4-2.1,1-4.2,0.7-6.3c-0.1-1.1-0.7-2.9-2.1-3c-0.6,0-1.1,0.2-1.6,0.6
			c-0.2,0.2-0.3,0.4-0.5,0.6c0,0.1-0.3,0.5-0.3,0.5c0,0.1-0.1,0.3-0.1,0.3c-0.2,0.3-0.5,0.6-0.8,0.8c-0.4,0.3-0.9,0.5-1,1.1
			c0,0.1,0,0.3,0,0.3c0.1,0,0.1-0.1,0.2-0.1c0.6-0.2,1.1-0.4,1.7-0.8c0.2-0.1,0.5-0.3,0.8-0.3c0.5,0,1-0.2,1.4-0.4
			c0.2-0.1,0.4,0.3,0.5,0.4c0.2,0.5,0.1,1.2,0,1.7c-0.2,1.6-0.6,3.1-1,4.6c-0.4,1.4-0.9,2.8-1.5,4.2c-0.6,1.3-1.2,2.5-1.8,3.8
			c-0.6,1.3-1,2.8-0.7,4.3c0.9,0.1,1.7,0.2,2.5,0.4c0.9,0.2,1.7,0.6,2.6,0.4c0.7-0.1,1.4-0.4,2.1-0.6c0.8-0.3,1.6-0.5,2.5-0.5
			c0.9,0,1.8,0.1,2.6,0.3c0.7,0.2,1.4,0.5,2.1,0.7c0.9,0.2,1.7,0.1,2.5-0.1c0.9-0.3,1.8-0.5,2.7-0.6c-0.1-0.1-0.2-0.1-0.3-0.1
			c-0.2,0-0.4,0.1-0.6,0.1c-0.2,0.1-0.5,0-0.8,0c0.1-0.1,0.2-0.1,0.4-0.2c0.1-0.1,0.2-0.2,0.4-0.3c0.3-0.1,1.3,0,1.4,0.2
			c0,0,0.1,0.1,0.2,0.2c0.6,0,1.1,0,1.6,0.1c0,0,0,0,0.1,0c0.2-0.1,0.4-0.3,0.6-0.5c0.2-0.2,0.4-0.4,0.6-0.7
			c0.2-0.3,0.3-0.6,0.4-0.9c0.1-0.2,0.2-0.4,0.3-0.6c0.1-0.2,0.2-0.4,0.2-0.7c0.1-0.2,0.1-0.7,0-1.1L66.7,52.1 M62.5,53
			c0.1,0,0.1,0,0,0.1c-0.1,0.2-0.2,0.4-0.4,0.6C61.9,54,61.9,54,62.2,54c0.3,0,0.5-0.2,0.8-0.2c0.1,0-0.2,0.2-0.3,0.2
			c-0.3,0.2-0.5,0.2-0.8,0.3c-0.1,0-0.4,0.1-0.5,0.1c0,0,0.1-0.2,0.2-0.2c0.2-0.2,0.4-0.5,0.6-0.8c0.3-0.3,0-0.2-0.2-0.2
			c-0.1,0-1.1,0.4-1.1,0.4c-0.1-0.2,0.6-0.4,0.7-0.4c0.1,0,0.2,0,0.3-0.1C62,53,62.3,53,62.5,53 M61.8,52c0.1,0,0.2,0,0.2,0
			c0.1,0.1,0.1,0.4,0,0.4c0,0-0.2-0.1-0.2-0.1c-0.2,0-0.4,0.2-0.6,0.3c0,0-0.2,0.1-0.2,0.1c0,0,0.1-0.3,0.2-0.3
			C61.4,52.2,61.5,52,61.8,52 M61.2,51.3c0.1-0.2,0.3-0.4,0.3-0.6c0,0.3-0.1,0.9-0.4,0.9c0,0-0.2,0-0.2,0
			C60.9,51.6,61.2,51.3,61.2,51.3 M61.1,51.9c0,0-0.3,0.3-0.4,0.5c-0.1,0.1-0.1,0.3-0.2,0.3c0,0-0.3,0-0.3,0c0,0,0.2-0.2,0.2-0.2
			C60.6,52.2,60.8,51.9,61.1,51.9 M60.4,53.8c0,0-0.1-0.2-0.1-0.2c0-0.1-0.2-0.2-0.3-0.3c-0.1,0-0.2,0-0.3,0
			c-0.1-0.1,0.1-0.1,0.2-0.1c0.2,0,0.4,0,0.6,0.1C60.6,53.4,60.6,53.6,60.4,53.8 M60.2,51.1c0.2-0.1,0.3-0.4,0.5-0.6
			c0,0.2-0.1,0.3-0.2,0.5c-0.1,0.1-0.1,0.3-0.2,0.4c-0.1,0.1-0.2,0-0.2-0.1C60,51.2,60.2,51.1,60.2,51.1 M59.6,49.9
			c0.1-0.1,0.3-0.2,0.3-0.3c0,0,0-0.1,0.1-0.1c0,0-0.1,0.4-0.2,0.6c-0.1,0.1-0.2,0.3-0.3,0.3c0,0-0.2-0.2-0.2-0.2
			C59.3,50.1,59.6,49.9,59.6,49.9 M59.1,53.4c-0.2-0.2-0.4,0-0.6-0.3c0.1-0.1,0.8,0.1,0.9,0.2c0.2,0.2-0.2,0.4-0.3,0.6
			C59,53.6,59.2,53.5,59.1,53.4 M58.9,51.4c0,0-0.1-0.1-0.1-0.1c0.1,0,0.3,0,0.4,0.1c0.2,0.1,0.1,0.4,0.1,0.6c0,0-0.2,0.6-0.2,0.5
			c0,0,0-0.5,0-0.5C59.2,51.8,59.1,51.6,58.9,51.4 M59.3,50.9c0.1,0.1,0.2,0.4,0,0.2c-0.1-0.1-0.5-0.3-0.8-0.2c0,0-0.3-0.1-0.2-0.2
			c0.1-0.1,0.3-0.1,0.4-0.1C59,50.7,59.2,50.7,59.3,50.9 M57.8,51.9c0,0-0.1,0-0.1,0l0-0.2c0.1-0.1,0.5,0,0.6,0.1
			c0.2,0.2,0.1,0.4,0,0.6c0,0-0.1,0.2-0.1,0.1c0,0,0-0.1,0-0.1C58.2,52.2,58,51.9,57.8,51.9 M58.2,51.2c-0.2-0.1-0.6-0.3-0.8-0.4
			c-0.1,0,0.2,0,0.1,0c0.1,0,0.3,0,0.4,0c0.1,0,0.3,0.2,0.4,0.4c0,0.1,0,0.2,0,0.2C58.4,51.4,58.3,51.2,58.2,51.2 M56.9,51.2
			c-0.2,0-0.3-0.1-0.5-0.1c-0.2-0.1-0.2-0.1,0-0.1c0.4,0,0.7,0.1,0.9,0.4c0,0.1,0.1,0.3,0.1,0.3l-0.1-0.1
			C57.2,51.3,57,51.2,56.9,51.2 M57.3,52.4c0,0.1,0,0.4-0.1,0.2c0-0.2-0.2-0.3-0.4-0.3c-0.2,0-0.3,0.1-0.4,0.1c0,0-0.1-0.1-0.1-0.2
			c0-0.1,0.4-0.1,0.6-0.1C57,52,57.3,52.1,57.3,52.4 M58.3,49.5c0.2-0.2,0.3-0.5,0.4-0.8c0,0,0-0.2,0-0.2c0,0,0.1,0.4,0.1,0.6
			c-0.1,0.2-0.2,0.6-0.4,0.6c0,0-0.2,0-0.3,0C58.1,49.7,58.3,49.5,58.3,49.5 M58.1,50.3c-0.3,0.1-0.6,0.2-0.8,0.2
			c-0.3,0.1-0.6,0.2-1.1,0.2C56.7,50.4,57.3,50.3,58.1,50.3 M56.6,49.1c0,0,0.1-0.5,0.1-0.5c0,0,0.3,0.5,0.1,0.7c-0.1,0-0.2,0-0.3,0
			C56.5,49.3,56.6,49.2,56.6,49.1 M55.6,49.9c0.6-0.2,1.5-0.3,2.2-0.2c-0.2,0-0.5,0.2-0.9,0.2c0,0-0.1-0.1-0.1-0.1
			c-0.3-0.1-0.5,0.1-0.7,0.1c-0.1,0-0.2,0-0.4,0c0,0-0.3,0-0.3,0C55.4,50,55.5,49.9,55.6,49.9 M54.2,50.3c0,0,0.5-0.4,0.5-0.3
			s-0.3,0.3,0,0.3c0.1,0,0.4,0.1,0.6,0.1c0.1,0-0.1,0-0.2,0c-0.3,0-0.4,0-0.7,0C54.2,50.5,54,50.5,54.2,50.3 M52.7,51
			c0.1-0.1,0.4-0.4,0.5-0.4c0,0-0.2,0.2-0.1,0.3c0.1,0.1,0.5,0,0.6,0c0,0,0.2-0.1,0.2,0c0,0-0.1,0.1-0.1,0.1
			c-0.1,0.1-0.5,0.2-0.7,0.2c-0.1,0-0.4,0.1-0.5,0.1C52.6,51.1,52.7,51,52.7,51 M51.7,51.8c0-0.1,0.1-0.2,0.1-0.2
			c0.1-0.1,0.2-0.2,0.3-0.2c0,0-0.3,0.6,0,0.5c0.1,0,0.4-0.2,0.7-0.3c0.1,0,0.3-0.1,0.2,0c-0.3,0.2-0.6,0.4-1,0.5
			c-0.1,0-0.3,0.1-0.3,0.1C51.6,52,51.7,51.9,51.7,51.8 M50.8,52.8c0-0.1,0.1-0.3,0.2-0.4c0-0.1,0.3-0.2,0.3-0.3
			c0,0.1-0.1,0.2-0.1,0.3c0,0.1-0.2,0.3,0,0.4c0.1,0,0.5-0.2,0.6-0.3c0.2-0.1,0.4-0.2,0.7-0.3c-0.3,0.3-0.6,0.5-1.1,0.7
			c-0.1,0-0.4,0.2-0.5,0.1C50.8,53,50.8,52.9,50.8,52.8 M50.2,53.6c0-0.3,0.2-0.4,0.3-0.6c0,0.1-0.2,0.6,0,0.6
			c0.1,0,0.2-0.1,0.3-0.2c0.2-0.1,0.4-0.2,0.6-0.3c0.2-0.1-0.1,0.2-0.2,0.2c-0.3,0.2-0.5,0.3-0.8,0.5c0,0-0.2,0.1-0.2,0.1
			C50.2,53.9,50.2,53.7,50.2,53.6 M49.7,54.8c-0.1,0,0-0.5,0.1-0.5c0-0.1,0,0.2,0.1,0.2c0.1,0,0.3-0.2,0.4-0.3
			c0.1,0,0.3-0.2,0.4-0.2c0,0-0.3,0.4-0.3,0.4c-0.1,0.1-0.2,0.1-0.3,0.2C50,54.6,49.7,54.8,49.7,54.8 M51.4,55.7
			c0,0-0.1,0.1-0.2,0.1c0,0-0.1-0.2-0.1-0.3c-0.1-0.2-0.6-0.2-0.8-0.1c0.2-0.2,0.8-0.3,1-0.1C51.4,55.4,51.5,55.6,51.4,55.7
			 M51.9,54.8l-0.1-0.1c-0.3-0.3-0.8,0.1-1,0.2c-0.1,0-0.2,0.1-0.2,0c0.2-0.6,0.5-1.2,1-1.5c0.1-0.1,0.3-0.1,0.4-0.1
			c0.1-0.1,0.2-0.3,0.2-0.4c0.2-0.3,0.6-0.3,0.7-0.6c0.1-0.3,0.5-0.6,0.8-0.7c0.2-0.1,0.3,0,0.5,0c0.1-0.1,0.2-0.2,0.3-0.3
			c0.2-0.1,0.5-0.3,0.8-0.3c0.3,0,0.7,0.1,0.9,0.2c0.1,0.1,0.2,0.2,0.2,0.3c0,0-0.3-0.2-0.4-0.2c-0.3-0.1-0.9-0.1-1.2,0.1
			s0,0.3,0.1,0.5c-0.1,0.1-0.3-0.1-0.4-0.1c-0.3-0.1-0.7,0.1-0.9,0.2c0,0-0.4,0.2-0.3,0.2c0.1,0.1,0.3,0.1,0.4,0.2
			c0,0,0.1,0,0.1,0.1c0,0.1-0.3,0-0.4,0c-0.3,0-0.8,0.2-1,0.5c0,0-0.2,0.2-0.1,0.2c0,0,0.1,0,0.2,0c0.1,0,0.2,0.1,0.3,0.2
			c0,0,0.1,0.1,0,0.2c0,0-0.2-0.1-0.2-0.1c-0.5-0.1-0.9,0.2-1.2,0.4c-0.1,0.1-0.5,0.3-0.3,0.4c0.1,0,0.3,0,0.4,0
			c0.1,0,0.3,0.1,0.3,0.2C51.9,54.6,51.9,54.8,51.9,54.8 M55.5,52.4c-0.2,0-0.2,0.2-0.5,0.1c0,0-0.1,0-0.1,0c0,0,0.3-0.2,0.4-0.3
			c0,0,0.1,0,0.2,0c0.5,0,0.9,0.3,0.7,0.7L56,53l0-0.2C56,52.6,55.8,52.4,55.5,52.4 M54.4,52.8c-0.2,0-0.6,0.4-0.7,0.2
			c0,0,0,0,0-0.1c0.2-0.2,0.5-0.4,0.9-0.3c0.3,0,0.6,0.3,0.4,0.7c0,0-0.1,0.2-0.1,0.2c0,0,0-0.1,0-0.1C54.9,53,54.7,52.8,54.4,52.8
			 M54,53.8C54,53.9,54,53.9,54,53.8c-0.1-0.2-0.1-0.4-0.3-0.4c-0.2-0.1-0.3,0.1-0.5,0c0,0-0.2-0.1-0.2-0.1c0-0.1,0.3-0.1,0.4-0.1
			C53.7,53.1,54.2,53.4,54,53.8 M52.4,54c0.2,0,0.5,0.1,0.6,0.2c0,0,0.1,0.3,0,0.2c-0.2-0.1-0.4-0.2-0.6-0.2c-0.2,0-0.2,0.1-0.3,0
			C51.7,54.1,52.3,54,52.4,54 M52.9,55.5c-0.3,0-0.6,0.1-0.8,0.2c-0.1,0,0.1-0.2,0.1-0.2c0.1-0.1,0.3-0.2,0.5-0.2
			c0.3,0,0.5,0.1,0.6,0.2c0,0,0,0.1,0,0.1C53.2,55.6,52.9,55.5,52.9,55.5 M54.2,54.9c0,0-0.2-0.2-0.3-0.2c-0.3-0.1-0.7,0.3-0.9,0.3
			l-0.2,0c0,0,0.1-0.2,0.2-0.2c0.2-0.2,1.3-0.6,1.3-0.1C54.3,54.7,54.3,54.9,54.2,54.9 M55.3,54.3C55.3,54.3,55.3,54.4,55.3,54.3
			c-0.1-0.1-0.2-0.3-0.4-0.3c-0.1,0-0.2,0-0.3,0c-0.1,0-0.2,0.2-0.3,0.2l-0.2,0c0,0,0,0,0.1-0.1c0.2-0.2,0.5-0.3,0.8-0.4
			C55.4,53.7,55.5,54,55.3,54.3 M56.4,53.9c0,0,0,0.2-0.1,0.2s-0.1-0.1-0.1-0.2c-0.2-0.3-0.4-0.1-0.7-0.1c0,0-0.2-0.1-0.2-0.2
			c0,0,0.2-0.1,0.2-0.1c0.1,0,0.1-0.1,0.2-0.1C56.2,53.4,56.4,53.6,56.4,53.9 M57.2,54c0,0,0-0.2,0-0.3c-0.1-0.3-0.4-0.1-0.6-0.2
			c0,0-0.2-0.1-0.2-0.1c0-0.1,0.2-0.1,0.3-0.1C57.3,53.2,57.5,53.7,57.2,54 M57.3,53.2c0,0,0.2-0.1,0.2-0.1c0.2-0.1,0.8,0,0.8,0.2
			c0,0.1,0,0.2-0.1,0.3c0,0-0.1,0.1-0.1,0.1c0,0,0-0.2,0-0.2c-0.1-0.2-0.5-0.1-0.7-0.2C57.5,53.3,57.3,53.2,57.3,53.2 M62.6,55.1
			c-0.2,0.1-0.6,0-0.9,0.1c-0.2,0-0.1,0.1,0,0.1c0.1,0,0.3,0,0.5,0l0.1,0c0,0-0.2,0.2-0.2,0.2c-0.2,0.1-0.7,0-1,0
			c-0.3,0,0.1,0.1,0.2,0.2c0.1,0,0.5,0,0.4,0.1c-0.2,0.1-0.4,0.1-0.6,0.1c-0.3,0-0.8,0-1.1,0.1c-0.2,0-0.4,0.3-0.7,0.4
			c-0.3,0.1-0.6,0-0.9-0.1c-0.2-0.1-0.5-0.2-0.8-0.2c0.4-0.1,0.8-0.4,1.2-0.6c0.2-0.1,0.6-0.3,0.9-0.3c0.1,0,0.1,0.1,0.2,0.1
			c0,0,0.1-0.1,0.1-0.1c0.8-0.7,1.9-0.2,2.8-0.5c0,0,0.1,0,0.1,0C63,54.9,62.7,55.1,62.6,55.1 M63.2,52.2c-0.1,0.1-0.2,0.4-0.3,0.5
			c0,0-0.2,0-0.2,0c0,0,0.2-0.2,0.2-0.3c0.1-0.2,0.2-0.3,0.3-0.5v0C63.3,51.9,63.2,52.2,63.2,52.2 M64.9,53.5c0,0.1-0.1,0.3-0.2,0.5
			c-0.2,0.2-0.4,0.4-0.5,0.4c0,0,0,0,0,0c0.1-0.1,0.8-1.3,0.8-1.2C65,53.2,64.9,53.5,64.9,53.5 M66.2,53.5c-0.1,0.2-0.4,0.5-0.6,0.7
			c-0.1,0.1,0-0.1,0.1-0.1c0.1-0.1,0.2-0.4,0.2-0.5c0,0,0-0.1,0-0.2c0-0.1,0.3-0.2,0.3-0.2C66.3,53.3,66.2,53.5,66.2,53.5"/>
		<path style="fill:#FFFFFF;" d="M51.3,75.5c0.3,0,0.5,0.1,0.8,0.1c0.1,0,0.5,0.1,0.6,0.1c-0.1,0.1-1.2-0.7-1.4-0.7
			c-0.5-0.2-1-0.5-1.4-0.8c-0.8-0.4-1.5-0.9-2.3-1.3c-0.9-0.5-1.7-1-2.5-1.7c-0.8-0.1-1.6,0-2.4-0.1c-1.5-0.1-2.9,0-4.4-0.1
			c0.3,0.1,0.6,0.3,0.8,0.4c0.2,0.1,0.4,0.3,0.7,0.4c1,0,1.8,0.6,2.7,0.9c0.9,0.4,1.8,0.8,2.7,1.1C47.1,74.6,49.2,75.1,51.3,75.5"/>
		<path style="fill:#FFFFFF;" d="M104.5,75.3c0-0.1-0.2-0.2-0.3-0.3c-0.3-0.2-0.6-0.4-0.9-0.6c0,0-0.7-0.2-0.9-0.3
			c-0.8-0.1-1.6-0.3-2.3-0.4s-1.6-0.1-2.3-0.1c-0.8,0-1.5-0.1-2.2-0.1c-0.7,0-1.3-0.2-2-0.3c-1.2-0.2-2.4-0.6-3.4-1.3
			c-1.1-0.9-1.4-2.2-1.6-3.5c-0.1-0.8-0.2-1.6-0.3-2.3c0-0.8,0-1.6,0-2.4c0-0.2,0-0.4,0-0.6c0-0.2,0-0.5,0-0.7c0-0.6,0-1.2,0-1.9
			c0-0.6,0-1.2,0.1-1.8c0-0.7,0.1-1.3,0.1-2c0.1-0.7,0.2-1.3,0.3-2c0-0.8,0.1-1.5,0.1-2.3c0-0.7-0.1-1.5-0.2-2.2
			c-0.1-1.4-0.6-2.8-1.1-4.1c-0.5-1.3-0.9-2.7-1.3-4c-0.2-0.7-0.6-1.4-0.8-2.1c-0.2-0.7-0.4-1.4-0.7-2.2c-0.2-0.8-0.6-1.4-0.8-2.2
			c-0.1-0.3-0.2-0.7-0.2-1s0.1-0.7,0.1-1c0-0.8,0.1-1.7,0.1-2.6c0-1.2-0.3-2.3-0.4-3.5c-0.1-0.5-0.2-1.1-0.1-1.6
			c0-0.6,0.2-1.2,0.2-1.8c0-0.2,0-0.4,0-0.6c0-0.3,0.1-0.7,0.2-1.1c0.1-0.4,0.2-0.8,0.2-1.2c0.1-0.8,0.3-1.7,0.1-2.5
			c0-0.2-0.1-0.2,0-0.4c0.1-0.1,0.2-0.2,0.3-0.4c0.6-1.1,0.6-2.6,0.1-3.7c-0.1-0.1-0.3-0.4-0.6-0.3c-0.1,0-0.1,0.2-0.2,0.2
			c-0.3,0.4-0.8,0.8-1.1,1.2c-0.3,0.6-0.3,1.2-0.4,1.8c0,0.1-0.1,0.2-0.1,0.2c-0.1,0-0.3-0.2-0.4-0.2c-1.1-0.9-1.1-2.4-1.8-3.5
			c0,0-0.2,0-0.2,0c-0.5,0.2-0.7,1-0.7,1.5c0,0.7,0.3,1.4,0.4,2.1c0,0.2,0,0.5,0,0.7c0,0.2-0.1,0.5-0.3,0.5c-0.2,0.1-0.3,0-0.6,0.1
			c-0.1,0.1-0.3,0.3-0.3,0.4c0,0,0,0.1,0,0.2c-0.1,0.1-0.2,0-0.3,0c-0.1,0.1,0.2,0.1,0.3,0.2c0.2,0.2-0.1,0.3-0.2,0.4
			c-0.3,0.3-0.7,1-1.1,1.2c-0.2,0.1-0.4,0.2-0.5,0.4c0,0.1,0,0.2,0,0.4c0,0.1-0.1,0.2-0.1,0.4c0,0.5,0.3,1.1,0.8,1.2
			c0.1,0,0.2,0,0.3,0s0.3,0.1,0.4,0.1c0.2,0.1,0.4,0.1,0.6,0.1c0.1,0,0.2-0.1,0.3-0.1c0.1,0,0,0.4,0,0.5c-0.1,0.5-0.3,0.9-0.5,1.3
			c-0.2,0.5-0.4,1-0.7,1.4c-0.3,0.4-0.8,0.7-1.1,1.1c-0.3,0.3-0.6,0.8-0.7,1.2c0,0.1-0.1-0.3-0.1-0.5c-0.1-1-0.8-1.6-1.6-2.1
			c-0.8-0.6-1.6-1-2.5-1.4c-0.9-0.4-1.9-0.8-2.8-1.2c-0.8-0.3-1.7-0.7-2.6-0.8c-0.3,0-0.7,0-0.8,0.3c-0.1,0.3,0.2,0.7,0.3,0.9
			c0.6,0.7,1.6,0.9,2.3,1.3c0.9,0.5,1.9,1,2.7,1.7c0.7,0.5,1.6,1,2,1.8c0.2,0.4,0.3,0.9,0.1,1.4c-0.1,0.3-0.1,0.5-0.2,0.8
			c0,0.1-0.1,0.5-0.2,0.6c-0.1,0-0.7-0.2-0.7-0.2c-0.3-0.1-0.5-0.2-0.7-0.3c-0.1-0.1-0.2-0.3-0.3-0.4c-0.1-0.1-0.2-0.2-0.2-0.3
			c-0.1-0.1-0.2-0.1-0.3-0.2c-0.1-0.1-0.1-0.2-0.2-0.3c-0.1,0-0.3-0.1-0.3-0.1c-0.1-0.1,0-0.2,0-0.3c0-0.1-0.1-0.2-0.1-0.3
			c-0.2-0.2-0.4-0.3-0.7-0.1c0,0-0.1,0.1-0.1,0.1c-0.1,0-0.1-0.2-0.2-0.2c-0.2-0.2-0.7-0.3-0.9,0c-0.1,0.1-0.1,0.2-0.2,0.3
			c-0.1,0.2-0.1,0-0.3,0c-0.3,0-0.5,0.2-0.5,0.4c0,0,0,0.3,0,0.3c0-0.1-0.3-0.1-0.3,0c-0.2,0.1-0.3,0.4-0.2,0.6H39.2
			c0.1-0.2,0.1-0.7-0.2-0.8c-0.1,0-0.3,0-0.3,0c-0.1-0.1,0.1-0.2,0-0.3c0-0.2-0.2-0.5-0.5-0.4c-0.1,0-0.2,0.2-0.3,0
			c-0.1-0.1-0.1-0.2-0.2-0.3c-0.3-0.2-0.7-0.2-0.9,0c-0.1,0-0.1,0.2-0.2,0.2L36.5,29c-0.2-0.2-0.5-0.1-0.7,0.1
			c-0.2,0.2-0.1,0.4-0.2,0.7c0,0.1-0.2,0.1-0.3,0.1c-0.1,0.1-0.1,0.2-0.2,0.3c-0.1,0.1-0.3,0.2-0.4,0.3c-0.2,0.2-0.4,0.6-0.7,0.7
			c-0.2,0.1-1,0.6-1.2,0.5c-0.1-0.1-0.1-0.2-0.1-0.3c-0.1-0.2-0.1-0.4-0.2-0.6c-0.1-0.3-0.2-0.7-0.2-1.1c0.1-0.6,0.4-1.2,0.9-1.6
			c1.3-1,2.8-2,4.4-2.8c0.5-0.3,2.3-1.2,2.3-1.6c0.1-0.5-0.6-0.6-0.9-0.6c-0.5,0.1-1.1,0.3-1.6,0.4c-0.7,0.2-1.3,0.4-2,0.7
			c-1.2,0.5-2.4,1-3.5,1.7c-1,0.6-2.1,1.3-2.3,2.6c0,0.1-0.1,0.6-0.1,0.5c-0.1-0.3-0.2-0.4-0.3-0.7c-0.2-0.3-0.4-0.6-0.7-0.9
			c-0.3-0.3-0.6-0.5-0.8-0.8c-0.3-0.4-0.4-0.9-0.7-1.3c-0.2-0.4-0.4-0.9-0.5-1.4c0-0.1-0.1-0.5,0-0.5c0.1-0.1,0.2,0.1,0.3,0.1
			c0.2,0,0.4,0,0.5-0.1c0.2-0.1,0.3-0.2,0.6-0.1c0.2,0.1,0.4,0,0.6-0.1c0.3-0.2,0.5-0.7,0.5-1.1c0-0.2-0.1-0.4-0.1-0.6
			c0-0.1,0-0.1,0-0.2c0-0.2-0.3-0.3-0.5-0.4c-0.4-0.2-0.7-0.9-1.1-1.2c-0.1-0.1-0.4-0.3-0.2-0.4c0.1-0.1,0.4-0.1,0.3-0.2
			c-0.1-0.2-0.3,0.1-0.3-0.2c-0.1-0.2-0.2-0.3-0.3-0.4c-0.2-0.2-0.3-0.1-0.6-0.1c-0.1,0-0.3-0.3-0.3-0.3c0,0,0-0.8,0-0.9
			c0.1-0.7,0.4-1.3,0.4-2.1c0-0.4-0.2-1.3-0.7-1.5c-0.1,0-0.2,0-0.2,0c-0.1,0.2-0.2,0.5-0.3,0.7c-0.4,1.1-0.6,2.1-1.4,2.8
			c-0.1,0.1-0.4,0.3-0.4,0.2c0,0,0-0.1-0.1-0.2c-0.2-0.6-0.1-1.3-0.4-1.8c-0.3-0.5-0.7-0.8-1.1-1.2c-0.1-0.1-0.1-0.2-0.2-0.2
			c-0.2-0.1-0.5,0.2-0.6,0.3c-0.5,1.1-0.5,2.7,0.1,3.7c0.1,0.1,0.2,0.2,0.3,0.3c0,0.1,0.1,0.1,0.1,0.2c0,0.1-0.1,0.1-0.1,0.2
			c-0.1,0.8,0,1.6,0.1,2.3c0.1,0.4,0.1,0.8,0.2,1.2c0.1,0.4,0.2,0.8,0.3,1.2c0,0.2,0,0.4,0,0.6c0,0.8,0.3,1.5,0.2,2.3
			c0,0.8-0.2,1.6-0.3,2.3c-0.1,0.8-0.3,1.6-0.3,2.3c0,0.9,0.1,1.7,0.1,2.6c0,0.4,0.1,0.9,0,1.4c-0.1,0.5-0.2,1-0.4,1.4
			c-0.3,1-0.7,2-1,2.9c-0.3,1-0.7,1.9-1,2.9c-0.3,0.9-0.6,1.8-0.9,2.7c-0.6,1.9-1.4,3.6-1.6,5.6c-0.1,0.9-0.2,1.8-0.1,2.7
			c0,1.1,0.2,2.1,0.3,3.1c0.1,1,0.1,2.1,0.2,3.1c0,0.4,0,0.9,0,1.4c0,0.5-0.1,1,0,1.5c0,0.4,0.1,0.9,0,1.3c-0.1,1,0,2,0,3
			c-0.1,1-0.2,1.9-0.4,2.8c-0.2,0.8-0.5,1.6-1.1,2.2c-0.5,0.5-1.2,0.8-1.8,1.1c-1.5,0.6-3.2,0.9-4.8,0.9c-1,0.1-2,0.1-3,0.1
			c-1,0.1-2,0.3-3,0.4c-0.3,0-1.1,0.1-0.7,0.6c0.4,0.4,1,0.4,1.6,0.5c1.5,0,3,0.1,4.6,0.1c1.5,0,3,0,4.5-0.2c0.7-0.1,1.3-0.2,2-0.3
			c0.3-0.1,0.6-0.1,0.9-0.3c0.3-0.2,0.6-0.1,1-0.1c0.9-0.1,1.8-0.1,2.8-0.1c0.4,0,0.9,0,1.3,0c0.1,0,0.3,0,0.5,0s0.2,0.2,0.3,0.3
			c0.1,0,0.3,0.1,0.5,0.1c0.8,0.1,1.6,0.1,2.4,0c0.8,0,1.6,0,2.4,0.1c1.7,0.1,3.3,0.3,5,0.4c0.3,0,0.6,0.1,0.9,0.1
			c0.4,0,0.6-0.1,0.8-0.1c0.3,0,0.6,0,0.9,0c0.1,0,0.1-0.1,0.2-0.1c0.1,0,0.4,0,0.6,0.1c0.1,0,0.2,0.1,0.3,0.1
			c0.1-0.1-0.2-0.4-0.3-0.4c0,0-0.2,0-0.2-0.1c0,0,0.3-0.1,0.3-0.2c0.2-0.1,0.4,0,0.6,0c0,0,0.3,0.1,0.2,0c-0.1-0.1-0.2-0.3-0.4-0.3
			c-0.2-0.1-0.4-0.1-0.6-0.2c0,0-0.1,0-0.1-0.1c0.1-0.2,0.8,0.2,0.8,0c0-0.1-0.4-0.3-0.5-0.3c-0.1,0-0.2-0.1-0.3-0.1
			c-0.4-0.2-0.7-0.4-1.1-0.5c-0.4-0.1-0.9,0-1.4-0.1c-0.4-0.1-0.6-0.2-1-0.2c-0.7,0-1.4,0.2-2.1,0c-0.5,0-1-0.1-1.6-0.1
			c-0.7-0.1-1.3-0.1-1.8-0.2c-0.2-0.1-0.4-0.1-0.6-0.2c-0.1-0.1,0.1-0.1,0.1-0.1c0.2,0,0.3,0,0.5,0c0.5,0,1-0.1,1.6-0.1
			c0.6,0,1.1,0,1.7,0c1.2,0,2.7,0.2,3.9,0.3c0.3,0,0.5,0.1,0.8,0c0.1,0,0.2-0.1,0.3-0.1c0.5-0.1,1.2,0.3,1.7,0.2
			c0.2,0,0.4-0.2,0.6-0.2c0.1,0,0.5,0.1,0.6,0.1c0.1-0.1-0.3-0.3-0.3-0.3c0,0-0.1-0.1-0.1-0.1c0,0,0.2,0,0.3,0c0.1,0,0.2,0,0.3-0.1
			c0.2,0,0.8,0.1,0.8,0c0-0.2-0.5-0.4-0.6-0.4c-0.2,0-0.2,0-0.3-0.2c0,0,0.2,0.1,0.2,0.1c0.1,0-0.2-0.2-0.2-0.3
			c-0.5-0.3-1.1-0.6-1.7-0.7c-0.3,0-0.6,0.1-0.9,0.1c-0.3,0-0.6,0-0.8-0.1c-0.9-0.2-1.7-0.2-2.6-0.3c-0.9-0.1-1.8-0.3-2.7-0.6
			c-0.3-0.1-0.8-0.2-1.1-0.4c-0.3-0.2-0.4-0.6-0.4-0.9c-0.1-0.8,0.1-1.6,0.2-2.4c0.1-0.9,0.1-1.8,0.2-2.7c0.1-0.8,0.3-1.7,0.3-2.5
			c0.1-0.9,0.1-1.9,0.3-2.8c0.2-0.9,0.7-1.7,1-2.5c0-0.1,0.1-0.2,0.1-0.3c0.1-0.3,0.2-0.7,0.3-1c0.1-0.3,0.1-0.7,0.2-1
			c0.1-1.3,0.1-2.6-0.1-3.8c-0.1-0.6-0.2-1.2-0.4-1.8c-0.1-0.3-0.2-0.6-0.3-0.9c-0.1-0.2-0.3-0.5-0.4-0.7c0-0.2,0.1-0.5,0.1-0.7
			c0.2-2.2,0.1-4.3,0.4-6.4c0-0.1,0.1-1,0.1-1c0,0,0.2,0,0.3,0c0.4,0,1,0,1.4,0c0.7-0.1,1.5,0,2,0.2c0.3,0.1,0.4,0.4,0.6,0.6
			c0.2,0.2,0.4,0.2,0.6,0.4c0,0,0.1,0.1,0.1,0.1v4.6c0,20.8,12.8,28.9,17.7,31.9l0.2,0.1l0.2-0.1c4.8-3,17.6-11.1,17.6-31.9v-4.4
			c0.2-0.2,0.3-0.3,0.6-0.4c0.3-0.1,0.4-0.4,0.7-0.6c0.5-0.2,1.3-0.3,2-0.2c0.5,0.1,1,0,1.4,0c0,0,0.3,0,0.3,0c0.1,0,0.1,0.9,0.1,1
			c0.3,2.1,0.2,4.2,0.4,6.4c0,0.2,0.1,0.5,0.1,0.7c0,0.2-0.2,0.3-0.3,0.4c-0.1,0.2-0.1,0.3-0.2,0.5c-0.1,0.4-0.3,0.8-0.4,1.1
			c-0.2,0.8-0.4,1.5-0.4,2.3c-0.1,1.6,0,3.2,0.5,4.7c0.1,0.2,0.1,0.4,0.2,0.6c0.2,0.6,0.6,1.2,0.8,1.8c0.2,0.6,0.3,1.2,0.3,1.8
			c0.1,1.2,0.3,2.4,0.4,3.7c0.1,0.6,0.1,1.1,0.2,1.7c0.1,0.6,0.1,1.2,0.2,1.7c0.1,0.8,0.4,2.1-0.2,2.7c-0.3,0.3-0.9,0.4-1.4,0.6
			c-0.6,0.2-1.2,0.3-1.8,0.4c-1.1,0.2-2.2,0.1-3.3,0.3c-0.2,0.1-0.6,0.1-0.8,0.1c-0.2,0-0.4-0.1-0.6-0.1c-0.2,0-0.5,0-0.7,0.1
			c-0.4,0.1-0.9,0.3-1.3,0.6c-0.1,0-0.3,0.1-0.2,0.2c0,0.1,0.2-0.1,0.3,0c0,0-0.1,0.2-0.1,0.2c0,0-0.1,0-0.2,0
			c-0.2,0-0.4,0.2-0.6,0.3c-0.1,0.1-0.1,0.1,0,0.1c0,0.1,0.6-0.1,0.8,0c0.1,0,0.1,0.1,0.2,0.1c0.2,0,0.6-0.1,0.2,0.1
			c-0.1,0-0.4,0.2-0.3,0.3c0.1,0.1,0.5-0.1,0.6-0.1c0.1,0,0.4,0.2,0.6,0.2c0.5,0.1,1.2-0.2,1.7-0.2c0.1,0,0.2,0.1,0.3,0.1
			c0.2,0,0.5,0,0.8,0c1.1-0.1,2.2-0.2,3.4-0.3c1.2-0.1,2.4,0,3.7,0c0.1,0,0.8-0.1,0.8,0c0,0.1-0.7,0.3-0.7,0.3
			c-0.6,0.2-1.3,0.2-1.9,0.2c-0.3,0-0.7,0.1-1,0.1c-0.3,0-0.7,0.1-1.1,0.1c-0.5,0-1-0.2-1.5-0.1c-0.4,0-0.6,0.1-1,0.2
			c-0.4,0.1-0.9,0-1.4,0.1c-0.4,0-0.8,0.3-1.1,0.5c-0.1,0-0.1,0.1-0.2,0.1c-0.2,0-0.4,0.1-0.6,0.2c-0.2,0.1,0.4,0.1,0.5,0.1
			c0.1,0,0.4,0,0.2,0.1C69.5,74,69.2,74,69,74.2c-0.1,0-0.4,0.3-0.3,0.3c0.2,0,0.6-0.1,0.8-0.1c0,0,0.3,0.1,0.3,0.2
			c0,0-0.4,0.3-0.4,0.3c0,0-0.1,0.2,0,0.2c0.1,0,0.2-0.1,0.3-0.1c0.3-0.1,0.6-0.1,0.9,0c0.2,0.1,0.5,0,0.9,0c0.3,0,0.5,0.1,0.8,0.1
			c0.3,0,0.6-0.1,0.9-0.1c1.6-0.1,3.2-0.2,4.9-0.3c0.8-0.1,1.6-0.1,2.4-0.1c0.9,0,1.7,0.1,2.6,0c0.2,0,0.4,0,0.5-0.1
			c0.1-0.1,0.2-0.2,0.4-0.3c1.5,0,3,0,4.5,0.1c0.2,0,0.5,0,0.7,0c0.2,0,0.4,0.2,0.7,0.3s0.5,0.1,0.7,0.2c0.6,0.1,1.1,0.2,1.7,0.3
			c1.2,0.1,2.5,0.2,3.7,0.2c-2.3,0.1-4.6,0.1-6.8,0.3c-0.1-0.1-0.1-0.3-0.2-0.3c-0.2-0.1-0.6,0-0.9,0.1c-0.9,0.2-1.9,0.5-2.9,0.3
			c0,0,0.2-0.1,0.2-0.2c-0.3-0.1-0.5-0.1-0.8-0.2c-0.7-0.1-1.4,0.2-2.1,0.3c-0.7,0.2-1.3,0.1-2.1,0c-0.6,0-1.1,0-1.7,0
			c-0.1,0-0.2-0.2-0.3-0.2c-0.2-0.1-0.6,0-0.8,0c-0.3,0-0.7,0-1.1,0c-0.7,0-1.5,0.1-2.2,0.1c-1.5,0.1-3,0.1-4.6,0.1
			c-1.5,0-3-0.3-4.4-0.2c-1.4,0.1-2.9,0.5-4.3,0.6c0,0,0.1-0.1,0.1-0.1c0.1-0.1,0.3-0.2,0.4-0.3c-1.5,0.3-3,0.4-4.5,0.5
			c-1.4,0.1-2.8,0.3-4.2,0.5c-1.4-0.2-2.8-0.3-4.3-0.5c-1.5-0.1-3-0.2-4.5-0.5c0.1,0.1,0.3,0.2,0.4,0.3c0,0,0.1,0.1,0.1,0.1
			c-1.4-0.1-2.8-0.5-4.2-0.6c-1.4-0.1-3,0.2-4.4,0.2c-1.5,0-3,0-4.6-0.1c-0.7,0-1.4-0.1-2.2-0.1c-0.3,0-0.7,0-1.1,0
			c-0.3,0-0.7-0.1-1,0c-0.1,0-0.2,0.2-0.3,0.2c-0.6,0-1.1,0-1.7,0c-0.7,0.1-1.3,0.2-2,0c-0.7-0.2-1.5-0.4-2.2-0.3
			c-0.2,0-0.5,0.1-0.8,0.2c0,0.1,0.3,0.2,0.2,0.2c-1,0.2-2-0.1-2.9-0.3c-0.3-0.1-0.7-0.1-0.9-0.1c-0.2,0.1-0.2,0.2-0.2,0.3
			c-3.6-0.4-7.3-0.4-11-0.4c-0.2,0-0.5,0.1-0.7,0.1c-0.5,0-2.1-0.2-2-0.2c-0.1-0.1-0.3-0.2-0.4-0.3c-0.1,0,0-0.1,0-0.1l0-0.3
			c-0.3,0.1-0.6,0.3-0.9,0.4c-0.1,0.1-0.2,0.2-0.3,0.4c-0.1,0.2,0.2,0.4,0.3,0.5c4.1,0.8,8.2,1.1,12.4,1.2c4.3,0.2,8.7,0.4,13.1,0.6
			c4.4,0.2,8.8,0.5,13.2,0.5c4,0,8.1-0.1,12.1-0.1c4,0,8.1,0,12.1,0.1c4.4,0.1,8.8-0.2,13.1-0.4c4.3-0.2,8.7-0.4,13.1-0.6
			c4.2-0.2,8.4-0.4,12.5-1.1c0.3-0.1,0.7-0.1,1-0.2C104.3,75.7,104.6,75.5,104.5,75.3z M82.2,63.9c0,0.2,0,0.7-0.1,0.7
			c0,0-0.1,0-0.1,0c-0.1-0.1-0.1-0.6-0.1-0.7c-0.1-1-0.3-2-0.4-3c-0.1-0.7-0.2-1.9,0.8-1.8c0.1,0,0.2,0,0.3,0.1
			c0.1,0,0.4,0.1,0.3,0.1c-0.2,0.2-0.5,0.7-0.6,1c0,0.1-0.1,0.2-0.1,0.2c0,0.1-0.1,0.4-0.1,0.6C82,62,82.2,63,82.2,63.9z M82.6,17.2
			c0-0.1,0-0.3,0.1-0.4c0.1-0.4,0.1-1.1,0.4-1.5c0.2-0.3,0.6-0.6,0.9-1c0-0.1,0.1-0.2,0.2-0.2c0,0,0.1-0.1,0.1,0
			c0.3,0.7,0.6,1.6,0.3,2.6c-0.1,0.5-0.4,1.1-0.7,1.5c0,0-0.1,0.2-0.1,0.2s-0.3-0.1-0.2-0.2c0,0,0.2-0.2,0.3-0.2
			c0.4-0.4,0.6-2,0.6-2c0,0,0,0,0,0c0,0-0.2,0.4-0.4,0.7c0,0-0.1,0.2-0.1,0.2c-0.1,0-0.1-0.4-0.1-0.6c0-0.1,0-0.2,0-0.3
			c0-0.2,0.1-0.3,0.1-0.4c0-0.2,0.1-0.3,0.2-0.6c0.1-0.2,0.2-0.5-0.1-0.2c-0.2,0.2-0.4,0.4-0.6,0.7c-0.2,0.5-0.2,1-0.2,1.6
			c0,0.3,0.1,1-0.2,1.2c0-0.3,0-0.7-0.1-0.8C82.7,17.3,82.6,17.4,82.6,17.2z M81.1,19.1c-0.1,0-0.4,0.1-0.3,0
			c0.1-0.1,0.3-0.1,0.4-0.1c0.1,0,0.2,0,0.4,0.1c0.1,0.1,0.3,0.2,0,0.2C81.5,19.2,81.3,19.1,81.1,19.1z M81.7,19.6
			c0,0.1-0.3,0.1-0.3,0C81.4,19.4,81.7,19.4,81.7,19.6z M81.1,19.3C81.2,19.4,81.2,19.3,81.1,19.3c-0.1,0.3,0.2,0.6,0.5,0.5
			c0.2,0,0.2-0.3,0.2-0.3h0.1c0.2,0-0.1,0.3-0.1,0.4c-0.2,0.2-0.6,0.2-0.8,0C80.9,19.7,80.8,19.2,81.1,19.3z M82.2,19
			c0,0-0.1,0.1-0.1,0.1c0,0-0.2-0.1-0.2-0.1c-0.2-0.1-0.4-0.2-0.8-0.2c0,0-0.3,0.1-0.3,0.1c0-0.1,0.3-0.2,0.4-0.3c0.1,0,0.4,0,0.4,0
			c0.2,0,0.2,0.1,0.3,0.2C81.9,18.8,82.2,18.9,82.2,19z M79.7,14.1c0-0.1,0.2-0.3,0.2-0.2v0c0.1,0.3,0.2,0.5,0.3,0.8
			c0.1,0.2,0.1,0.5,0.2,0.7c0.1,0.2,0.2,0.4,0.2,0.6c0.1,0.2,0,0.4,0.1,0.7c0,0.1,0.2,0.5-0.1,0.4c-0.2,0-0.3-0.3-0.4-0.5
			c-0.1-0.3-0.2-0.6-0.4-1c-0.2-0.3-0.3-0.7-0.3-1.1C79.6,14.4,79.6,14.3,79.7,14.1z M77.3,23.1c-0.3-0.1-0.6-0.7-0.6-1
			c0,0,0-0.1,0.1-0.1c0.1,0,0,0.2,0,0.2c0,0.2,0.2,0.4,0.3,0.7c0,0.1,0.3,0.2,0.3,0.3C77.4,23.2,77.2,23.1,77.3,23.1z M78.8,23.2
			c-0.2,0.1-0.6,0.1-0.8,0c-0.2-0.1-0.3-0.2-0.5-0.3c-0.2-0.2,0-0.3,0-0.5c0-0.3,0.2-0.3,0.5-0.4c0.2-0.1,0.5-0.4,0.3-0.6
			c-0.1,0-0.3-0.1-0.3-0.1c-0.1,0-0.1,0.1-0.2,0.2c-0.1,0.1-0.2,0-0.2,0.1c0,0-0.4,0.2-0.4,0.2c-0.1-0.1,0-0.3,0-0.3
			c0.1-0.1,0.2-0.1,0.3-0.1c0.1,0,0.1,0,0.2-0.1c0,0,0.1-0.1,0.1-0.1c0.1,0,0.1,0,0.1-0.1c0.1-0.2,0.4-0.3,0.7-0.6
			c0.3-0.3,0.4-0.5,0.7-0.7c0.2-0.1,0.3-0.4,0.7-0.4c0,0-0.1,0.3-0.1,0.3c-0.2,0.4-1.1,0.6-1.3,1.2c0,0.1,0,0.3,0,0.4
			c0.1,0.1,0.2,0.1,0.3,0.1c0.1,0.1,0,0.3-0.1,0.4c-0.1,0.1-0.3,0.3-0.4,0.4c0,0-0.4,0.1-0.2,0.2c0.1,0,0.2-0.1,0.3-0.1
			c0.2,0,0.1,0.2,0.3,0.1c0.2-0.1,0,0.2,0,0.2c-0.1,0.1-0.3,0.2-0.4,0.3c-0.1,0-0.3,0-0.2,0.1c0,0.1,0.5,0,0.6,0
			c0.3-0.1,0.5-0.4,0.8-0.6c0.1,0,0.7-0.2,0.7-0.1c-0.1,0.2-0.5,0.3-0.6,0.5c-0.1,0.1,0,0.1,0.1,0.1c0.6,0.1,1.5,0.1,1.9-0.2
			c0.4-0.3,0.7-0.6,1-0.9c0.1-0.1,0.2-0.3,0.3-0.4c0-0.1,0.3-0.5,0.3-0.4C83,21.5,83,22,82.7,22.5c-0.6,0.7-1.4,0.7-2.3,0.8
			c-0.1,0-0.6,0.1-0.8,0.1c-0.1,0-0.1-0.2-0.2-0.3C79.2,22.8,79,23.1,78.8,23.2z M74.6,33.1c0,0,0-0.2,0.1-0.2
			C74.7,32.9,74.7,33,74.6,33.1c0,0.4,0.1,0.9,0.2,1.3c0,0.2,0.1,0.3,0.1,0.5c0.1,0.3-0.1,0.1-0.2,0c-0.2-0.2-0.6-0.3-0.8-0.6
			c-0.1-0.2,0.2-0.6,0.3-0.7C74.4,33.4,74.5,33.2,74.6,33.1z M75.1,35.6c-0.4,0.1-0.8,0.1-1.1,0.1c-0.1,0-0.9,0-0.9-0.1
			c0.1-0.1,0.6-1,0.7-0.9c0.3,0.3,0.7,0.4,1.1,0.7C75,35.5,75.2,35.6,75.1,35.6z M70.6,31.8c0,0,0.1,0,0.1-0.1c0,0,0.1-0.2,0.1-0.2
			c0.1,0,0.3,0.3,0.3,0.4c0.3,0.2,0.7,0.3,1.1,0.4l0.2,0.1c0,0.1-0.2,0.5-0.2,0.6c0,0.1-0.1,0.2-0.1,0.3c0,0-0.1,0.3-0.1,0.3
			c-0.1,0-0.3-0.2-0.4-0.2c-0.3-0.2-0.4-0.2-0.8-0.4c0,0-0.2-0.1-0.3-0.1V31.8L70.6,31.8z M70.6,33.1c0.3,0.2,0.7,0.3,1,0.6
			c0.1,0,0.3,0.2,0.3,0.2c0,0.1-0.1,0.2-0.1,0.2c-0.1,0.2-0.3,0.9-0.6,1c-0.1,0-0.2,0-0.2,0c-0.1,0-0.3,0.1-0.4,0.2c0,0,0,0.1,0,0.1
			h0V33.1L70.6,33.1z M32.9,32.1l0.2-0.1c0.4-0.1,0.8-0.3,1.1-0.4c0.2-0.1,0.3-0.7,0.5-0.1c0,0,0.1,0.1,0.1,0.1v1.1
			c-0.1,0-0.3,0.1-0.3,0.1c-0.3,0.1-0.5,0.2-0.8,0.4c0,0-0.3,0.2-0.4,0.2c0,0-0.1-0.2-0.1-0.3c0-0.1-0.1-0.2-0.1-0.3
			C33.1,32.6,32.9,32.1,32.9,32.1z M34.9,32.9v2.3l0,0l0-0.1c-0.1-0.1-0.2-0.2-0.4-0.2c0,0-0.1,0-0.2,0c-0.1,0-0.2-0.3-0.3-0.5
			c-0.1-0.1-0.1-0.3-0.2-0.4c0-0.1-0.2-0.2-0.2-0.3c0,0,0.3-0.2,0.3-0.2c0.1-0.1,0.3-0.1,0.4-0.2C34.3,33.1,34.6,33,34.9,32.9z
			 M30.6,34.8c0.1-0.5,0.3-1.1,0.2-1.7c0,0,0-0.1,0-0.1c0-0.1,0.1,0.2,0.1,0.1c0.1,0.2,0.3,0.4,0.4,0.7c0.1,0.1,0.3,0.4,0.3,0.6
			c0,0.1-0.3,0.3-0.4,0.3c-0.2,0.1-0.4,0.3-0.6,0.4C30.5,35.2,30.6,34.9,30.6,34.8z M30.7,35.4c0.4-0.2,0.8-0.4,1.1-0.7
			c0.1-0.1,0.6,0.8,0.7,0.9c0,0.1-0.1,0.1-0.3,0.1c-0.4,0-0.8,0-1.1,0c-0.2,0-0.4,0-0.6-0.1C30.3,35.6,30.6,35.4,30.7,35.4z
			 M28.7,22.2c0,0,0-0.2,0-0.2c0,0,0.1,0,0.1,0.1c0,0.3-0.3,0.9-0.6,1c0,0-0.1,0.1-0.1,0c0,0,0.2-0.3,0.3-0.3
			C28.6,22.7,28.7,22.4,28.7,22.2z M26.7,19.5c-0.1,0.1,0.3,0.3,0.4,0.4c0.2,0.2,0.4,0.5,0.6,0.7c0,0,0.2,0.3,0.1,0.2
			c-0.2-0.1-0.3-0.3-0.5-0.4C27,20.1,26.8,19.9,26.7,19.5c-0.1,0-0.1,0-0.1,0C26.6,19.5,26.7,19.5,26.7,19.5z M26.3,19.7
			c0.2,0.1,0.4,0.4,0.7,0.7c0.2,0.2,0.5,0.4,0.7,0.6c0.1,0.1,0,0.1,0.1,0.1c0,0,0.2,0.2,0.2,0.2c0.1,0,0.2,0.1,0.4,0.1
			c0.1,0,0.2,0.3,0.1,0.4L28,21.5c0,0-0.1,0-0.1,0c-0.2,0-0.2-0.2-0.3-0.2c-0.1,0-0.3,0-0.3,0.1c-0.2,0.1,0,0.5,0.1,0.6
			c0.3,0.2,0.6,0,0.7,0.4c0.1,0.2,0.2,0.4,0,0.5c-0.1,0.1-0.3,0.3-0.5,0.3c-0.2,0.1-0.6,0.1-0.8,0c-0.2-0.1-0.4-0.3-0.7-0.2
			c-0.1,0-0.1,0.2-0.2,0.3c-0.1,0.1-0.6,0-0.8-0.1c-0.4,0-0.8,0-1.2-0.1c-0.3-0.1-0.7-0.3-0.9-0.5c-0.5-0.4-0.5-1.1-0.6-1.7
			c0-0.1,0.2,0.3,0.3,0.4c0.1,0.2,0.2,0.3,0.3,0.4c0.4,0.4,0.8,0.9,1.4,1.1c0.5,0.1,1,0.1,1.6,0.1c0.2,0,0.2-0.1,0-0.2
			c-0.2-0.1-0.4-0.2-0.5-0.4c0-0.1,0.6,0.1,0.7,0.1c0.3,0.2,0.5,0.4,0.8,0.6c0,0,0.5,0.1,0.6,0c0-0.1-0.5-0.2-0.6-0.3
			c-0.1-0.1-0.4-0.4-0.1-0.3c0.2,0.1,0.2-0.1,0.3-0.1c0.1,0,0.2,0.1,0.3,0.1c0.2,0-0.1-0.1-0.2-0.2c-0.1-0.1-0.3-0.3-0.4-0.4
			c-0.1-0.1-0.2-0.3-0.1-0.4c0.1-0.2,0.3,0.1,0.3-0.2c0-0.2-0.1-0.5-0.3-0.7c-0.3-0.3-0.8-0.4-1-0.8c0,0-0.2-0.3-0.1-0.3
			C25.9,19.2,26,19.5,26.3,19.7z M23.7,19.3c0,0,0.1-0.2,0.2-0.2c0.2-0.1,0.7-0.2,0.8,0c0.1,0.2-0.2,0-0.3,0
			C24.3,19.1,23.7,19.4,23.7,19.3z M24.2,19.6c0,0.1-0.3,0.1-0.3,0C23.9,19.4,24.2,19.4,24.2,19.6z M23.7,19.5c0,0.1,0,0.3,0.2,0.3
			c0.3,0.1,0.6-0.1,0.4-0.4c0-0.1,0,0,0.1,0c0.2,0,0.2,0.4,0.1,0.6c-0.2,0.2-0.6,0.2-0.8,0C23.7,19.8,23.5,19.5,23.7,19.5L23.7,19.5
			z M24.8,16.7c0-0.1,0-0.4,0.1-0.6c0.1-0.4,0.3-0.9,0.4-1.3c0.1-0.3,0.3-0.6,0.3-0.8v0c0,0,0.2,0.2,0.2,0.2c0.1,0.2,0,0.3,0.1,0.4
			c0,0.3-0.1,0.7-0.2,1c-0.2,0.3-0.3,0.7-0.4,1c-0.1,0.2-0.3,0.7-0.6,0.4C24.6,16.9,24.8,16.8,24.8,16.7z M23.6,18.8
			c0.1-0.1,0.2-0.1,0.3-0.2c0.1,0,0.3,0,0.4,0c0.1,0,0.4,0.2,0.4,0.3c0,0-0.3-0.1-0.3-0.1c-0.3,0-0.6,0.1-0.8,0.2
			c0,0-0.2,0.1-0.2,0.1c0,0-0.1-0.1-0.1-0.1C23.4,18.9,23.6,18.8,23.6,18.8z M21,16.7c-0.2-1,0-1.9,0.3-2.6c0.1-0.1,0.1,0,0.1,0
			c0,0.1,0.1,0.2,0.2,0.2c0.3,0.3,0.7,0.6,0.9,1c0.3,0.4,0.3,1.1,0.4,1.5c0,0.1,0,0.2,0.1,0.4c0,0.1,0,0.1-0.1,0.1
			c-0.2,0.1-0.1,0.5-0.1,0.8c-0.2-0.2-0.2-0.7-0.2-0.9c0-0.4,0.1-0.9,0-1.3c0-0.4-0.2-0.7-0.4-1c0-0.1-0.4-0.5-0.5-0.4
			c-0.1,0,0.1,0.3,0.1,0.4c0.1,0.2,0.1,0.4,0.2,0.6c0.1,0.3,0.1,0.4,0.1,0.7c0,0.1,0,0.6-0.1,0.6c0,0-0.1-0.1-0.1-0.2
			c-0.2-0.3-0.3-0.5-0.4-0.7c0,0,0,0,0,0h0c0.1,0.8,0.1,1.6,0.6,2c0,0,0.3,0.2,0.3,0.2c0,0.1-0.2,0.2-0.2,0.2c0,0-0.1-0.2-0.1-0.2
			C21.4,17.8,21.1,17.2,21,16.7z M23.4,61.1c-0.1-0.3-0.1-0.6-0.2-0.9c-0.1-0.2-0.4-0.7-0.6-1c-0.1-0.1,0.2-0.1,0.3-0.1
			c0.2,0,0.2-0.1,0.3-0.1c0.9-0.1,0.9,1.2,0.8,1.8c-0.1,0.5-0.2,1-0.3,1.5c0,0.5-0.1,1.1-0.2,1.6c0,0.2,0,0.7-0.1,0.7
			c0,0-0.1,0-0.1,0c-0.1,0-0.1-0.6-0.1-0.7C23.4,63,23.5,62,23.4,61.1z M13.7,73.2c1.4-0.5,2.6-1.1,3.4-2.3c0.1-0.1,0,0.3,0,0.4
			c-0.2,0.4-0.6,0.9-0.9,1.2c-0.8,0.7-1.9,1-2.9,1.2C12.5,74,11.9,74,11.1,74C11.8,73.6,12.7,73.6,13.7,73.2z M16.2,74.1
			c-1.4,0.7-3.1,0.7-5,0.8c1-0.2,2.1-0.3,3-0.7c0.4-0.1,0.9-0.3,1.3-0.6c0.4-0.2,0.7-0.4,0.9-0.8c0.6-0.6,1.1-1.3,1.4-2.1
			c0.4-0.8,0.5-1.7,0.7-2.5c0.2-1.2,0.5-2.5,0.6-3.8c0.1-1.3,0.1-2.6,0.3-3.8c0-0.1,0-0.3,0-0.4c0-0.2,0.1-0.4,0.2-0.6
			c0-0.1,0.1-0.4,0.2-0.4c0.1,0-0.1,2-0.1,2.2c-0.1,0.8-0.2,1.7-0.2,2.5c0,0.3,0,0.6,0,0.8c0,0.6-0.1,1.3-0.2,2c0,0,0,0.1,0,0.1
			c0,0,0.1-0.2,0.1-0.3c0.2-1.1,0.2-2.1,0.3-3.2c0-0.1,0-0.2,0-0.3c0-0.3,0.1-0.6,0.1-1c0.1-0.6,0.2-1.2,0.4-1.9
			c0.1-0.5,0.2-1,0.5-1.4c0,0,0-0.1,0,0c-0.1,0.7-0.3,1.4-0.4,2.1c-0.1,0.7-0.2,1.4-0.2,2.1c-0.1,1.4-0.2,2.8-0.5,4.2
			C19.5,69.8,18.7,72.7,16.2,74.1z M21.5,73.2c0,0-0.4,0-0.4,0c-0.9,0-1.5,0.1-2.4,0.2c-0.2,0-0.8,0.2-0.9,0.1c0,0,0.3-0.4,0.4-0.4
			c0.1-0.1,0.3-0.4,0.4-0.5c0.1,0,0.5,0,0.7,0c0.7-0.1,1.3-0.1,1.9-0.1c0,0,0.6,0,0.6,0c0,0-0.2,0.4-0.2,0.5
			C21.5,73,21.6,73.2,21.5,73.2z M21.9,71c0,0.2-0.1,0.4-0.1,0.5c-0.1,0.1-0.2,0-0.2,0c-0.5-0.1-1.4,0.1-1.9,0.1c-0.1,0-0.2,0-0.3,0
			c0,0-0.3,0.1-0.3,0c0-0.2,0.2-0.5,0.3-0.7c0.2-0.5,0.3-1.1,0.5-1.6c0.3-1.1,0.5-2.3,0.6-3.4c0.1-1.2,0.1-2.3,0.3-3.5
			c0.2-1,0.4-2.1,1-2.9c0,0,0,0,0,0c0.1,0,0.1,0.1,0.2,0.2c0.1,0.1,0.2,0.1,0.2,0.1c0.1,0.1,0.1,0.3,0.1,0.4
			c0.1,0.1,0.2,0.3,0.3,0.4c0.2,0.3,0.3,0.6,0.3,0.9c0,0.9,0,1.8-0.1,2.7c-0.1,0.9-0.1,1.8-0.2,2.7c-0.1,0.9-0.3,1.8-0.4,2.7
			C22.2,70,22.1,70.4,21.9,71z M26.9,72.7c1.1,0.3,2.2,0.3,3.3,0.4c1.2,0.1,2.4,0.1,3.6,0.1c0.1,0,0.4,0.1,0.4,0.1
			c0,0-0.2,0-0.3,0.1c-0.1,0-0.2,0.1-0.4,0.1c-0.2,0.1-0.7,0-0.2,0.2c0.1,0,0.3,0.1,0.4,0.1c0.1,0,0,0.1,0.2,0.1
			c-0.2,0-0.1,0.1-0.2,0.1c-0.3,0.1-0.8,0-1.1,0.1c-0.1,0-0.3,0-0.3,0.1c0,0,0.3,0.1,0.3,0.1c0.3,0,0.4,0,0.8,0
			c0.2,0,0.4,0.1,0.6,0.1c0.1,0,0.4,0,0.6,0.1c0,0-0.3,0-0.4,0c-0.4,0-0.9,0-1.4,0c-0.7,0-1.1-0.1-1.8-0.2c-0.5,0-1,0-1.4,0
			c-1.1-0.1-2.1-0.3-3.2-0.4c-0.3,0-0.7,0-1,0c-0.1,0-0.6-0.1-0.7,0c0,0.1,0.4,0.2,0.5,0.2c-0.7,0.1-1.3,0.2-2,0.2
			c-0.3,0-0.5,0-0.8,0c-0.3-0.1-0.3-0.2-0.4-0.5c-0.1-0.1-0.2-0.3-0.2-0.4c-0.1-0.2-0.1-0.4,0-0.7c0-0.4,0.2-0.8,0.2-1.2
			c0.1-0.9,0.2-1.8,0.4-2.7c0-0.2,0.1-0.6,0.1-0.6l0.2,0c0.5,0.1,0.2,0.9,0.1,1.2c-0.1,0.6-0.3,1.8-0.4,2.4c0,0.1-0.1,0.3,0,0.3
			c0.1,0,0.1-0.1,0.1-0.2c0.6-2.1,0.9-4.1,1.2-6.3c0.1,0.4,0,0.8-0.1,1.2c-0.1,0.5-0.1,1-0.1,1.4c-0.1,1-0.2,1.9-0.5,2.9
			c-0.1,0.4-0.2,0.9-0.3,1.3c-0.1,0.4-0.2,1,0.1,1.4c0.2,0.3,0.7,0.2,0.9,0.2c0.1,0,0.7,0.1,0.8-0.1c0-0.1-0.3-0.1-0.3-0.1
			c-0.2,0-0.4-0.2-0.5-0.2c-0.4-0.3-0.4-0.9-0.4-1.3c0.1-0.6,0.2-1.2,0.3-1.8c0.2-1.3,0.3-2.7,0.5-4c0.2-1.4,0.2-2.9,0.2-4.3
			c0-0.7,0.1-1.4,0.3-2.1c0.1-0.3,0.2-0.6,0.2-0.9c0.1-0.3,0.1-0.7,0.3-0.9c0,0,0.2-0.3,0.2-0.3c0,0-0.1,0.3-0.1,0.4
			c-0.3,0.9-0.4,1.8-0.4,2.8c0,1-0.1,1.9-0.1,2.9c0,1.9-0.3,3.8-0.5,5.7c0,0.1-0.1,0.3,0,0.2c0.2-0.1,0.1-0.7,0.2-0.9
			c0.1-0.3,0.2-0.6,0.2-0.9c0-0.3,0-0.7,0.1-1c0-0.6,0.1-1.3,0.2-1.9c0-0.3,0-0.6,0.1-0.9c0-0.1,0-0.3,0.1-0.5
			c0.1-0.1,0.2-0.2,0.2-0.3c0.1-0.3,0.1-0.8,0.1-1.2c0-1.1,0.2-2.2,0.4-3.2c0.1-0.5,0.2-1,0.4-1.5c0.1-0.4,0.4-0.8,0.5-1.2
			c0-0.4-0.3,0.1-0.3,0.3c-0.2,0.3-0.3,0.6-0.5,0.9c0,0-0.3,0.4-0.3,0.4l0.2-0.6c0.2-0.6,0.5-1.1,0.7-1.7c0.2-0.6,0.2-1.2,0.4-1.8
			c0.1-0.4,0.2-0.9,0.2-1.3c0-0.5,0.1-0.9,0.1-1.3c0,0-0.1-0.3-0.1-0.3c-0.1,0.1,0,0.3,0,0.4c-0.1,0.9-0.3,1.8-0.6,2.7
			c0,0.1-0.2,0.5-0.1,0.3c0-0.4,0.1-0.7,0.1-1c0.1-0.9,0.2-1.5,0.2-2.3c-0.1-0.7-0.1-1.2-0.5-1.8c-0.2-0.2-0.3-0.5-0.4-0.8
			c-0.1-0.3-0.1-0.7-0.2-1c-0.1-0.4-0.4-0.7-0.7-1.1c-0.1-0.2-0.3-0.4-0.4-0.6c-0.4-0.4-1.1-0.5-1.6-0.8c-0.3-0.1-0.5-0.2-0.8-0.3
			c-0.1,0-0.7-0.2-0.7-0.1c0,0,0.2,0,0.3,0c0.6-0.1,1.1,0.2,1.6,0.3c0.4,0,0.6,0.1,0.9,0.2c0.3,0.1,0.7,0.2,0.8,0.3
			c0.5,0.5,0.8,1.2,1.1,1.8c0.3,0.6,0.7,1.2,1,1.8c0.6,1.2,0.7,2.6,0.7,3.9c0,0.2-0.1,0.4-0.1,0.7c0.1,1.3-0.2,2.7-0.6,3.9
			c-0.3,1-0.6,2-0.8,3c-0.2,1.1-0.3,2.3-0.4,3.4c-0.3,2.2-0.7,4.4-0.9,6.6c0,0.1,0,0.2,0,0.3c-0.1,0.1-0.2,0.1-0.2,0.1
			c-0.1,0,0,0.1-0.1,0.2c-0.1,0.3-0.4,1.1-0.1,1.3c0.3,0.3,1.1,0.1,1.5,0.1v0v0c-0.3-0.1-0.7-0.3-0.8-0.5c-0.1-0.2-0.3-0.4-0.3-0.7
			c0-0.3,0.3,0.2,0.3,0.2C25.8,72.2,26.3,72.5,26.9,72.7z M29.6,38.5c-0.3,1.8-0.3,3.7-0.4,5.6c-0.1,1.9-0.3,3.9-0.7,5.9h0v0
			c0.3-0.9,0.4-2,0.6-3c0-0.1,0-0.3,0.1-0.4c0-0.1,0.1,0.2,0.2,0.2c0.6,1.1,0.7,2.5,0.8,3.7c0.1,1.3,0.1,2.7-0.2,4
			c-0.1,0.4-0.4,0.9-0.5,1.3c-0.1,0.6-0.5,1.2-0.7,1.8c-0.2,0.7-0.3,1.5-0.3,2.2v0.1c-0.2,1.7-0.4,3.3-0.6,5
			c-0.1,0.8-0.2,1.6-0.2,2.4c0,0.6-0.1,1.4,0.4,1.9c0.4,0.4,1.1,0.6,1.6,0.7c0.7,0.2,1.3,0.3,2,0.4c1.4,0.2,2.9,0.3,4.2,0.6
			c-0.4,0-1,0.1-1.4,0.1l0,0.1c0.6,0.1,1.3,0,1.8,0.2c-0.5,0-1.1,0.1-1.6,0.2c0.1,0,0.5,0.2,0.4,0.3c0,0-0.3,0.1-0.3,0.1
			c-0.6,0.1-1.2,0-1.9-0.1c-0.7-0.1-1.4-0.1-2-0.2c-0.7,0-1.4,0-2.1,0c-0.7,0.1-1.3,0-2,0c-0.2,0-0.5,0.1-0.7,0
			c-0.1-0.1-0.3-0.6-0.2-0.7c0,0,0.2-0.1,0.2-0.1c0,0,0,0.2,0.1,0.3c0.3,0.5,1,0.1,1.4,0c1.2-0.1,2.4,0.3,3.5,0.2v0l0,0v0
			c-1-0.2-2.1-0.3-3.3-0.4c-0.2,0-0.9,0-0.9-0.1c-0.1-0.2,0.1-0.5,0.1-0.7c0-0.1,0-0.1,0-0.1c-0.1-0.3-0.1-0.9-0.1-1.3
			c0.1-1.7,0.1-3.4,0.2-5.2c0.1-0.8,0.1-1.6,0.2-2.4c0-0.4,0-0.9,0.1-1.3c0.1-0.3,0.2-0.7,0.3-1c0.1-0.2,0.1-0.4,0.2-0.6
			c0.4-1.4,0.6-2.8,0.7-4.3c0.1-1.2,0.1-2.7-0.3-3.8c-0.3-0.6-0.6-1.2-0.9-1.8c-0.4-0.6-0.8-1.2-1.2-1.8c-0.4-0.5-0.7-1.1-1.4-1.3
			c-0.3-0.1-0.7-0.1-1-0.1c-0.4-0.1-0.7-0.2-1.1-0.3c-0.1,0-0.3,0-0.5,0c-0.1,0-0.6,0.1-0.4,0c0.7-0.3,1.6-0.3,2.3-0.1
			c0.4,0.2,0.9,0.1,1.4,0.4c0.4,0.2,0.7,0.6,0.9,0.9c0.1,0.1,0.3,0.4,0.3,0.4c0.1,0,0.2-0.4,0.2-0.6c0-0.6-0.4-1-0.8-1.4
			c-0.1-0.2-0.3-0.4-0.4-0.6c-0.1-0.3,0.2-0.3,0.4-0.2c0.4,0.2,1.3,0.3,1.3-0.3c0-0.2-0.3-0.7,0.1-0.8c0.1,0,0.2,0,0.3-0.1
			c1-0.5,0.8-2.2,0.9-3.4c0.1-0.4,0.1-0.7,0.2-1c0-0.1,0.9-0.1,1,0C29.7,37.8,29.6,38.4,29.6,38.5z M23.1,33.2
			c0.1,0.3,0.3,0.4,0.4,0.7c0.1,0.3,0.1,0.7,0,1c0,0.8,0.1,1.5,0.8,1.6c0.1,0,0.1,0,0.2,0c0.1,0,0.1,0.1,0.2,0.1
			c0.2,0.1,0.4,0,0.7,0c0.3,0,0.6,0.1,0.9,0.1c0.5,0.1,1,0.1,1.4,0.2c1.1,0.2,2.2,0.3,3.3,0.3c0,0,0-0.1,0-0.1
			c-0.4-0.1-0.9-0.2-1.3-0.4c-0.4-0.1-0.8-0.1-1.1-0.2c-0.3-0.1-0.7-0.2-1-0.3c-0.6-0.1-1.3-0.1-1.9-0.3c-0.4-0.1-0.7-0.4-1-0.6
			c0,0-0.1,0-0.1,0c-0.1-0.1-0.4-0.5-0.5-0.7c-0.1-0.2,0-0.8,0.1-1c0.1-0.1,0.4-0.2,0.5-0.2c0.4-0.2,0.8-0.7,0.8-1.2
			c0-0.1-0.1-0.5,0-0.5s0.3,0.1,0.4,0.2c0.1,0.2,0.1,0.5,0.2,0.6l0,0h0c0-0.2-0.1-0.4-0.1-0.6c-0.1-0.2,0-0.6-0.1-0.8
			c0-0.1-0.1-0.2-0.2-0.3s-0.2-0.1-0.2-0.2c-0.1-0.2,0-0.4,0-0.6c0-0.1,0-0.2-0.1-0.3c-0.1-0.1-0.2-0.2-0.3-0.3c0-0.1,0-0.2,0-0.3
			c0-0.1-0.3-0.7-0.2-0.8c0,0,0.1,0.1,0.2,0.1c0.3,0.2,0.4,0.5,0.6,1c0.1,0.2,0.2,0.5,0.3,0.7c0,0.1,0.2,0.3,0.2,0
			c-0.1-0.3-0.1-0.5,0-0.8c0-0.3,0.1-0.6,0.1-0.9c0-0.4-0.3-0.8-0.1-1.2c0.2-0.4-0.1-0.9-0.2-1.3c0-0.1,0-0.2,0-0.3
			c0-0.3-0.1-0.6-0.1-0.9c0-0.2,0-0.7,0.1-0.8c0,0,0.1,0.3,0.1,0.3c0.1,0.9,0.6,2,1.1,2.5c0.4,0.4,0.9,0.8,1.3,1.3
			c0.8,1,1.1,2.2,1.6,3.3c0.2,0.5,0.3,1,0.3,1.5c0,0.7-0.2,1.3-0.4,2c0,0-0.1,0.4-0.1,0.4c0,0-0.3-0.3-0.3-0.3c-0.1-0.2,0-0.4,0-0.6
			c0-0.8,0-1.4-0.1-2.1c-0.2-0.7-0.4-1.3-0.8-2c-0.1-0.2-0.2-0.5-0.4-0.7c-0.2-0.2,0,0.3,0,0.3c0.4,0.7,0.7,1.5,0.8,2.3
			c0.1,0.4,0.1,0.9,0.1,1.3c0,0.2,0.1,0.7-0.1,0.9c-0.1,0.1-0.4-0.1-0.4-0.2c-0.2-0.2-0.4-0.6-0.7-0.9c-0.1,0.3,0.1,1.3-0.2,1.3
			c-0.1,0-0.3-0.1-0.4-0.1c-0.1,0-0.3-0.1-0.4-0.1c-0.3-0.1-0.2-0.1-0.4-0.4c0-0.1-0.1-0.1-0.2-0.1c0,0,0-0.1,0-0.2
			c-0.1-0.2-0.3-0.4-0.4-0.5c0-0.1,0-0.3-0.1-0.4c-0.1-0.1-0.1-0.2-0.2-0.3c-0.1,0-0.1,0.4-0.2,0.6c-0.1,0.3-0.1,0.6-0.1,0.9
			c0,0.2,0,0.5,0.1,0.7c0.1,0.1,0.3,0.1,0.6,0.1c0.3,0,0.7,0.2,1.1,0.3c1.3,0.4,2.7,0.8,4,0.8c0.6,0,1.2,0.1,1.7-0.2
			c0.2-0.1,0.8-0.7,1-0.6l-0.4,0.7c0,0,0,0,0,0c0,0,0.4-0.1,0.7-0.2c0.1,0,0.4-0.2,0.4-0.1c0.1,0.1-0.7,0.7-0.7,0.7c0,0,0,0.1,0,0.1
			l0,0c0.4,0,1.1-0.3,1.4-0.2c0,0,0.3,0.3,0.3,0.3c0,0.1-0.6,0.1-0.7,0.1c-0.1,0-0.2,0-0.3,0.1l-0.1,0c-0.2,0.1-0.7,0.3-0.7,0.3v0
			c0.6,0.1,1.2,0.3,1.4,0.7c0,0.1,0.2,0.2,0.1,0.3c0,0-1.1-0.4-1.2-0.4c0,0-0.7-0.1-0.7-0.1c0,0.1,0.6,0.3,0.8,0.5
			c0.1,0.1,0.5,0.5,0,0.5c-0.3,0-0.6-0.4-0.8-0.6c-0.9-0.5-2.2-0.3-3.2-0.3c-1.2,0-2.4-0.1-3.6-0.2c-0.8-0.1-1.6-0.2-2.4-0.2
			c-0.4,0-0.7,0.1-1,0c-0.7-0.3-0.6-1.2-0.7-1.9 M64.4,63.9c-1.5-0.6-3.4-0.4-4.9,0.1c-0.4,0.1-0.8,0.3-1.2,0.4
			c-0.5,0.1-1,0.1-1.4,0c-0.7-0.1-1.4-0.4-2.1-0.7c-0.9-0.3-1.7-0.4-2.7-0.3c-0.8,0.1-1.5,0.3-2.2,0.6c-0.8,0.3-1.6,0.6-2.4,0.4
			c-0.4-0.1-0.7-0.2-1.1-0.3c-3.1-0.9-4.7-0.4-5.3-0.2c-0.6-0.9-1.1-1.8-1.6-2.7c0.8-0.4,1.6-0.7,2.5-0.7c0.9-0.1,1.9,0,2.8,0.2
			c0.6,0.1,1.1,0.3,1.7,0.5c0.9,0.2,1.8,0.1,2.7-0.2c0.7-0.2,1.4-0.5,2.2-0.7c0.8-0.1,1.6-0.2,2.4-0.1c1.4,0.2,2.7,1,4.1,1
			c0.7,0,1.4-0.3,2.1-0.5c0.9-0.2,1.9-0.4,2.9-0.4c1.1,0,2.1,0.3,3,0.8C65.5,62.2,65,63.1,64.4,63.9z M69.9,43.6
			c0,5.9-1,10.7-2.6,14.7c-1.2-0.8-2.6-1.1-3.7-1.1c0.1,0-0.4,0-0.5,0l0,0c-0.2,0-0.3,0-0.4,0c0,0-1.4,0.1-2.1,0.3
			c-0.7,0.2-1.4,0.5-2.1,0.5c-0.6,0-1.2-0.1-1.8-0.3c-1-0.3-1.9-0.7-2.9-0.8c-0.9-0.1-1.7-0.1-2.6,0.1c-1.6,0.3-3.2,1.3-4.8,0.9
			c-0.9-0.2-1.8-0.6-2.7-0.7c-0.8-0.1-1.5-0.2-2.2-0.1c-1.2,0.1-2.2,0.5-3.2,1.1c-1.6-4-2.6-8.9-2.6-14.8v-4.3
			c0.3,0,0.5-0.2,0.6-0.5c0-0.2,0-0.3-0.1-0.5c0-0.2,0-0.3,0-0.5c0-0.2-0.3-0.4-0.6-0.5v-0.3c0,0,0,0,0-0.1c0.3,0,0.4,0.2,0.5,0.4
			c0,0.1,0,0.2,0.1,0.2c0.1,0,0.1-0.2,0.2-0.2c0.1-0.2-0.1-0.6,0-0.7c0.1-0.2,0-0.5-0.2-0.6c-0.1-0.1-0.2-0.1-0.3-0.1
			c-0.2-0.1-0.2-0.2-0.2-0.4v-4h34.2l0,0l0,0v4.1c0,0,0,0.2-0.1,0.4c-0.1,0.1-0.3,0.1-0.4,0.2c-0.1,0.1-0.3,0.4-0.2,0.6
			c0.1,0.2-0.1,0.5,0,0.7c0,0.1,0.1,0.2,0.1,0.2c0.1,0.1,0.1-0.2,0.1-0.2c0.1-0.2,0.2-0.4,0.4-0.4v0.2c0,0,0.1,0,0.2-0.1
			c0,0.1,0,0.1,0,0.1c-0.1,0.2-0.7,0.4-0.7,0.7c0,0.1,0,0.1,0,0.2c0,0.3-0.2,0.5-0.1,0.8c0.1,0.3,0.3,0.5,0.6,0.5L69.9,43.6
			L69.9,43.6z M74.8,37.4c-1,0-2.3-0.2-3.2,0.3c-0.2,0.1-0.4,0.6-0.8,0.6c-0.3-0.1-0.2-0.2-0.1-0.4c0.2-0.2,0.5-0.3,0.8-0.5
			c-0.1,0,0.1,0,0.1-0.1c0,0-0.7,0.1-0.7,0.1c-0.1,0-1.2,0.4-1.2,0.4c0-0.1,0.1-0.2,0.1-0.3c0.4-0.3,0.9-0.6,1.4-0.7v0
			c-0.3-0.2-0.6-0.3-1.1-0.4c-0.1,0-0.6-0.1-0.7-0.1c0,0,0.2-0.3,0.3-0.3c0.3-0.1,1.1,0.2,1.4,0.2l0,0l0,0c-0.1-0.1-0.8-0.6-0.7-0.8
			c0.1,0,0.3,0.1,0.4,0.1c0.3,0.1,0.4,0.2,0.7,0.2l0,0c0.1,0,0.1-0.1,0.1-0.1c-0.1,0-0.4-0.7-0.4-0.7c0.1-0.1,0.6,0.3,0.7,0.4
			c1,0.8,2.6,0.4,3.7,0.2c0.8-0.1,1.4-0.4,2.2-0.6c0.3-0.1,0.7-0.2,1-0.3c0.2-0.1,0.6,0,0.8-0.2c0.2-0.3,0.1-0.9,0-1.2
			c0-0.1-0.1-0.9-0.2-0.9c0,0-0.2,0.4-0.2,0.5c0,0.1,0,0.2,0,0.3c0,0.1-0.3,0.3-0.4,0.5c0,0.1,0,0.1,0,0.2c0,0.1-0.1,0.1-0.2,0.1
			c-0.2,0.2,0,0.3-0.4,0.4c-0.1,0-0.3,0.1-0.4,0.1c-0.1,0-0.3,0.2-0.4,0.1c-0.3-0.1-0.1-1.1-0.2-1.3c-0.3,0.3-0.6,0.9-1,1.1
			c-0.3,0.1-0.2-0.8-0.2-1c0-1.2,0.3-2.4,1-3.5c0-0.1,0.2-0.3,0.1-0.3c-0.1,0-0.3,0.3-0.3,0.4c-0.8,1.3-1.1,2.8-1.1,4.3
			c0,0.2,0.1,0.4,0,0.6c0,0-0.2,0.3-0.3,0.3c0,0-0.1-0.3-0.1-0.4c-0.2-0.6-0.4-1.1-0.4-1.8c0-0.9,0.3-1.6,0.6-2.4
			c0.3-0.9,0.7-1.8,1.3-2.6c0.4-0.7,1.1-1.1,1.6-1.7c0.4-0.6,0.7-1.4,0.8-2.1c0-0.2,0.1-0.5,0.1-0.1c0.1,0.4,0,1,0,1.4
			c0,0.1,0,0.2,0,0.3c-0.1,0.4-0.2,0.7-0.3,1c0,0.3,0.1,0.4,0.2,0.6c0.1,0.4-0.1,0.6-0.2,1c0,0.4,0.1,0.8,0.1,1.1
			c0,0.2-0.1,0.4-0.1,0.7c0,0.1,0.2-0.1,0.2-0.1c0.3-0.6,0.4-1.3,0.9-1.7c0.1-0.1,0.2-0.3,0.2,0c0,0.2-0.1,0.5-0.2,0.7
			c0,0.1,0,0.2,0,0.3c0,0.1-0.2,0.2-0.3,0.2c-0.1,0.1-0.1,0.3-0.1,0.4c0,0.2,0.1,0.4,0,0.6c0,0.1-0.3,0.2-0.4,0.4
			c-0.1,0.2,0,0.5-0.1,0.8c0,0.2-0.2,0.5-0.1,0.7l0.1,0c0.1-0.1,0.1-0.4,0.2-0.6c0-0.1,0.4-0.3,0.5-0.2c0.1,0.1,0,0.6,0,0.7
			c0,0.3,0.2,0.6,0.4,0.8c0.2,0.2,0.7,0.2,0.8,0.4c0.3,0.5,0.1,1.4-0.4,1.7c0,0-0.1,0-0.1,0c-0.4,0.2-0.8,0.6-1.3,0.7
			c-0.6,0.1-1.1,0.1-1.6,0.2c-0.3,0.1-0.7,0.2-1,0.3c-0.3,0.1-0.8,0.1-1.1,0.2c-0.4,0.1-0.9,0.3-1.3,0.4l0,0l-0.1,0c0,0,0,0,0,0.1
			c0,0,0.1,0,0.1,0h0c1.1,0,2.2-0.1,3.2-0.3c0.5-0.1,1-0.1,1.4-0.2c0.3,0,0.6-0.1,0.9-0.1c0.2,0,0.5,0.1,0.8,0
			c0.1,0,0.1-0.1,0.2-0.1c0.1,0,0.1,0,0.2,0c0.5-0.1,0.7-0.5,0.8-1c0-0.2,0-0.5,0-0.8c0-0.3-0.1-0.6,0-0.9c0.1-0.2,0.3-0.4,0.4-0.7
			c0.1-0.3,0.2-0.7,0.3-0.9c-0.1,1.1-0.2,2.2-0.3,3.2c0,0.4,0,0.8-0.3,1.2c-0.3,0.4-0.9,0.3-1.3,0.3c-0.8,0-1.6,0.1-2.4,0.2
			C77.2,37.3,76,37.5,74.8,37.4z M79.3,71.6c-0.1,0-0.2,0-0.3,0c-0.6-0.1-1.3,0-1.9,0c-0.7,0-1.5-0.1-2.2,0c-0.7,0-1.3,0.1-2,0.2
			c-0.7,0.1-1.3,0.2-2,0.1c0,0-0.3-0.1-0.3-0.1c-0.1-0.1,0.3-0.3,0.4-0.3c-0.4-0.1-1-0.2-1.6-0.2c0.5-0.2,1.2,0,1.8-0.2l0-0.1
			c-0.5,0-1-0.1-1.4-0.1c1.8-0.4,3.7-0.4,5.5-0.8c0.7-0.2,1.7-0.3,2.2-0.8c0.7-0.6,0.4-1.8,0.4-2.6c-0.2-2.2-0.5-4.4-0.8-6.8h0v0v0
			h0c-0.1-0.8-0.2-1.5-0.3-2.2c-0.1-0.6-0.5-1.2-0.7-1.8c-0.1-0.3-0.2-0.6-0.4-0.9c-0.1-0.4-0.2-0.8-0.3-1.1
			c-0.1-0.8-0.1-1.6-0.1-2.4c0-0.8,0.1-1.6,0.2-2.4c0.1-0.7,0.2-1.5,0.6-2.1c0,0,0.1-0.3,0.1-0.2c0,0,0.1,0.3,0.1,0.4
			c0.1,1,0.3,2.1,0.6,3l0,0c-0.3-1.9-0.6-3.8-0.6-5.7c-0.1-1.9-0.1-3.8-0.4-5.7c0-0.1-0.2-0.8-0.1-0.8c0.1,0,0.9-0.1,1,0
			c0.1,0.3,0.2,0.6,0.2,1c0.2,1.3-0.1,3,0.9,3.4c0.2,0.1,0.4,0,0.5,0.3c0.1,0.2-0.1,0.4-0.1,0.6c0,0.6,0.8,0.4,1.3,0.3
			c0.3-0.1,0.6-0.1,0.4,0.3c-0.1,0.3-0.4,0.5-0.6,0.8c-0.2,0.2-0.4,0.6-0.5,0.9c0,0.2-0.1,0.8,0.1,0.9c0,0,0.2-0.3,0.3-0.4
			c0.2-0.3,0.5-0.7,0.9-0.9c0.4-0.3,1-0.2,1.4-0.4c0.8-0.2,1.6-0.3,2.3,0.1c0.2,0.1-0.3,0-0.4,0c-0.2,0-0.3,0-0.5,0
			c-0.5,0-0.9,0.3-1.4,0.3c-0.4,0-0.9,0.1-1.2,0.3c-0.2,0.2-0.4,0.4-0.6,0.7c-0.2,0.3-0.5,0.6-0.7,0.9c-0.3,0.5-0.6,1-0.9,1.4
			c-0.3,0.5-0.5,1.1-0.8,1.7c-0.5,1.1-0.4,2.5-0.4,3.7c0.1,1.5,0.3,2.9,0.7,4.4c0.1,0.2,0.1,0.4,0.2,0.6c0.1,0.3,0.2,0.6,0.3,0.9
			c0.1,0.4,0.1,0.9,0.1,1.3c0.1,0.9,0.2,1.7,0.2,2.6c0.1,1.7,0.2,3.4,0.2,5.2c0,0.4,0,1-0.1,1.3c0,0.1,0,0.2,0,0.2
			c0,0.1,0.2,0.4,0.1,0.6c-0.1,0.1-0.8,0.1-0.9,0.1c-1.2,0.1-2.3,0.2-3.4,0.4l0,0v0c0.7,0,1.5-0.1,2.2-0.2c0.4,0,0.8-0.1,1.2,0
			c0.4,0,0.7,0.2,1.1,0.2c0.1,0,0.3-0.1,0.4-0.2c0.1-0.1,0-0.2,0.1-0.2c0-0.1,0.2,0.1,0.2,0.1c0.1,0.1-0.1,0.7-0.2,0.7
			C79.6,71.6,79.4,71.6,79.3,71.6z M83.4,73.4c0,0.2-0.2,0.3-0.2,0.5c0,0.1-0.1,0.3-0.2,0.3c-0.3,0.2-0.9,0.1-1.2,0.1
			c-0.6,0-1.2-0.1-1.8-0.2c0.1,0,0.6,0,0.5-0.2c-0.1-0.1-0.7,0-0.9,0c-0.6,0-1.1,0.1-1.6,0.1c-0.6,0.1-1.2,0.1-1.9,0.2
			c-0.7,0.1-1.4,0.1-2.1,0.1c-0.6,0.1-1.1,0.2-1.8,0.2c-0.4,0-0.8,0-1.1,0c-0.1,0-0.6,0-0.6,0c0.1-0.1,0.4-0.1,0.6-0.1
			c0.2,0,0.4-0.1,0.6-0.1c0.3,0,0.5,0,0.8,0c0,0,0.3-0.1,0.3-0.1c0-0.1-0.2-0.1-0.3-0.1c-0.3,0-0.8,0-1.1-0.1c-0.1,0,0-0.2,0.1-0.2
			c0.1,0,0.3,0,0.4-0.1c0.4-0.1-0.2-0.1-0.3-0.2c-0.1,0-0.6-0.2-0.6-0.2c0-0.1,1-0.1,1.1-0.1c0.8,0,1.6-0.1,2.4-0.1
			c0.8,0,1.5-0.1,2.2-0.2c1-0.1,2.4-0.1,3.1-1.1c0-0.1,0.2-0.4,0.3-0.2c0,0.1-0.2,0.6-0.3,0.7c-0.1,0.2-0.5,0.4-0.8,0.5c0,0,0,0,0,0
			c0,0,0,0,0,0c0.4,0,1.3,0.3,1.6-0.2c0.1-0.3-0.1-0.9-0.2-1.2c0-0.3-0.2-0.1-0.3-0.3c0-0.1,0-0.2,0-0.3c-0.1-1.4-0.3-2.8-0.6-4.1
			c-0.2-1.5-0.4-3-0.6-4.4c-0.1-0.7-0.1-1.4-0.3-2.1c-0.1-0.7-0.4-1.3-0.6-2c-0.4-1.3-0.8-2.8-0.7-4.2c0-0.3-0.1-0.7-0.1-1
			c0-0.3,0-0.7,0-1c0-0.8,0.2-1.5,0.5-2.2c0.3-0.7,0.7-1.3,1.1-1.9c0.4-0.7,0.7-1.4,1.3-2c0.1-0.2,0.4-0.2,0.6-0.3
			c0.2-0.1,0.4-0.2,0.7-0.2c0.6-0.1,1.3-0.4,1.9-0.3c0.1,0,0.2,0,0.3,0c-0.1-0.1-0.9,0.2-1,0.2c-0.4,0.1-0.7,0.3-1.1,0.4
			c-0.3,0.1-0.6,0.2-0.9,0.3c-0.3,0.2-0.5,0.5-0.7,0.8c-0.2,0.3-0.5,0.6-0.7,1c-0.1,0.4-0.1,0.8-0.3,1.2c-0.1,0.4-0.4,0.7-0.6,1
			c-0.2,0.4-0.2,0.9-0.2,1.4c0,0.6,0,1.1,0.1,1.7c0,0.3,0,0.6,0.1,0.9c0,0.2,0.2,0.7,0.1,0.8c0,0-0.1-0.3-0.1-0.4
			c-0.3-0.8-0.5-1.7-0.6-2.7c0,0,0-0.4,0-0.5c-0.1,0-0.1,0.2-0.1,0.3c0,0.4,0,0.9,0.1,1.3c0,0.5,0.1,1,0.2,1.3
			c0.1,0.6,0.2,1.2,0.4,1.8c0.2,0.6,0.5,1.1,0.7,1.7l0.2,0.6c0,0-0.3-0.4-0.3-0.4c-0.2-0.3-0.4-0.6-0.6-1c-0.1-0.1-0.1-0.2-0.2-0.3
			c-0.1-0.1-0.1,0.1-0.1,0.2c0,0.1,0.2,0.5,0.2,0.6c0.2,0.4,0.3,0.8,0.4,1.3c0.1,0.4,0.2,0.8,0.2,1.2c0.2,0.9,0.3,1.8,0.4,2.8
			c0,0.3,0,0.9,0.1,1.2c0.1,0.1,0.2,0.2,0.2,0.4c0,0.2,0.1,0.4,0.1,0.6c0,0.5,0.1,1,0.1,1.4c0.1,0.8,0.1,1.6,0.2,2.4
			c0,0.3,0.1,0.4,0.2,0.7c0.1,0.3,0,0.8,0.2,0.9c0.1,0.1,0.1-0.1,0-0.2c-0.1-0.9-0.2-1.8-0.3-2.7c-0.1-1-0.1-1.9-0.2-2.9
			c0-1-0.1-1.9-0.1-2.9c0-1-0.1-1.9-0.4-2.9c0,0-0.1-0.4-0.1-0.4c0.1,0,0.2,0.3,0.2,0.3c0.1,0.1,0.1,0.2,0.1,0.4
			c0.3,1,0.6,1.9,0.7,2.9c0.1,1.2,0.1,2.3,0.2,3.5c0.1,1.2,0.2,2.4,0.4,3.6c0.1,1,0.2,2,0.4,3c0.1,0.7,0.2,1.6-0.3,2
			c-0.1,0-0.3,0.2-0.5,0.2c-0.1,0-0.3,0-0.3,0.1c0,0.2,0.6,0.1,0.7,0.1c0.3,0,0.8,0.1,1-0.1c0.2-0.3,0.2-0.9,0.1-1.2
			c-0.1-0.5-0.2-1-0.3-1.4c-0.3-0.9-0.4-1.9-0.5-2.8c0-0.5,0-1-0.1-1.4c0-0.4-0.2-0.9-0.1-1.3c0.3,2.2,0.6,4.2,1.2,6.3
			c0,0,0,0.3,0.2,0.2c0,0-0.1-0.3-0.1-0.3c-0.1-0.6-0.3-1.8-0.4-2.4c-0.1-0.3-0.3-1.1,0.1-1.2c0,0,0.2,0,0.2,0
			c0.1,0.1,0.1,0.4,0.1,0.5c0,0.3,0.1,0.6,0.1,0.9c0.1,0.7,0.1,1.4,0.3,2.1C83.4,72.2,83.6,72.8,83.4,73.4z M83.7,71.5
			c-0.1-0.1-0.1-0.4-0.1-0.5c-0.1-0.3-0.1-0.6-0.2-0.8c-0.1-0.6-0.2-1.1-0.3-1.6c-0.2-1.2-0.3-2.3-0.4-3.5c-0.1-1.1-0.2-2.3-0.2-3.5
			c0-0.4,0-0.8,0.3-1.1c0.1-0.1,0.2-0.3,0.2-0.4c0-0.1,0-0.2,0.1-0.3c0.1-0.1,0.2,0,0.2-0.1c0.1-0.1,0.1-0.2,0.2-0.2c0,0,0,0,0,0
			c0.9,1.1,1.1,2.9,1.2,4.2c0.1,0.9,0.1,1.7,0.2,2.6c0.1,0.9,0.2,1.7,0.4,2.6c0.2,0.8,0.4,1.6,0.7,2.3c0,0.1,0.2,0.3,0,0.4
			c-0.1,0-0.3,0-0.4,0c-0.4,0-0.9,0-1.3,0C84.3,71.5,83.8,71.6,83.7,71.5z M86.9,73.5c-0.8-0.1-1.5-0.1-2.4-0.2c-0.1,0-0.4,0-0.4,0
			c-0.1,0,0-0.2,0-0.3c0-0.1-0.1-0.3-0.1-0.4c0-0.1,0.5-0.1,0.6-0.1c0.5,0,1.2,0.1,1.9,0.1c0.2,0,0.5,0,0.7,0c0.1,0,0.3,0.3,0.4,0.5
			c0,0.1,0.4,0.4,0.4,0.4C87.7,73.6,87.1,73.5,86.9,73.5z M89.3,74.1c-0.6-0.2-1.1-0.7-1.5-1.2c-0.4-0.5-0.9-1.1-1.1-1.7
			c-0.6-1.2-0.8-2.6-1-3.9c-0.2-1.4-0.3-2.8-0.5-4.2c-0.1-0.7-0.1-1.4-0.2-2.1c-0.1-0.8-0.3-1.5-0.4-2.2c0,0,0,0,0,0
			c0.1,0.2,0.2,0.4,0.3,0.7c0.1,0.3,0.2,0.7,0.3,1.1c0.2,0.8,0.3,1.6,0.4,2.5c0,0.1,0,0.2,0,0.3c0.2,1.1,0.1,2.1,0.3,3.2
			c0,0,0,0.2,0.1,0.3c0,0.1,0-0.1,0-0.1c-0.1-0.7-0.1-1.3-0.2-2c0-0.2,0-0.5,0-0.8c-0.1-0.8-0.1-1.6-0.2-2.4c0-0.2-0.2-2.3-0.1-2.3
			c0.1,0,0.3,0.9,0.4,0.9c0,0.2,0,0.4,0,0.5c0.2,1,0.2,2.1,0.3,3.1c0.1,1.1,0.2,2.2,0.4,3.3c0.2,1,0.3,2.1,0.7,3.1
			c0.3,1,1,2,1.7,2.7c0.1,0.1,0.1,0.1,0.2,0.2c0,0,0.1,0.1,0.2,0.2c0.6,0.5,1.5,0.8,2.2,1c0.9,0.2,1.8,0.4,2.7,0.6
			C92.4,74.7,90.8,74.7,89.3,74.1z M92.3,73.8c-0.2-0.1-0.6-0.1-0.8-0.2c-1.2-0.4-2-0.8-2.7-1.8c-0.1-0.2-0.3-0.4-0.4-0.7
			c0-0.1-0.1-0.3,0-0.2c0.6,0.9,1.6,1.6,2.6,2c0.6,0.2,1.1,0.4,1.8,0.6c0.6,0.1,1.2,0.2,1.8,0.6C93.6,74,93,74,92.3,73.8z"/>
		<path style="fill:#FFFFFF;" d="M64.1,72.4c0.5-0.2,1-0.5,1.7-0.5c0.5-0.3,1-0.6,1.5-0.9c-1.4,0.1-2.9,0-4.3,0.1
			c-0.8,0-1.7,0-2.6,0.1c-0.8,0.7-1.6,1.2-2.5,1.7c-0.7,0.4-1.4,0.9-2.2,1.2c-0.5,0.2-0.9,0.5-1.4,0.8c-0.1,0.1-1.4,0.9-1.5,0.8
			c0.1,0.1,0.6-0.1,0.7-0.1c0.4-0.1,0.9-0.1,1.4-0.2c1.1-0.2,2.2-0.4,3.3-0.8C60.4,74,62.3,73.3,64.1,72.4"/>
		<path style="fill:#FFFFFF;" d="M34.3,18.4c0.1,0.2,0.2,0.5,0.3,0.6c0,0.1,0.1,0.3,0.1,0.4l0,0.1c-0.1,0.4-0.2,1.1,0.3,1.3
			c0,0.1-0.1,0.6-0.3,0.6l0,0.2c0.3,0,0.4-0.4,0.5-0.7c0.1,0,0.1,0,0.2,0c0,0.2-0.1,0.8-0.3,0.7l0,0.2c0.4,0.1,0.6-0.6,0.6-0.9
			c0.1,0,0.1,0,0.2-0.1c0,0.2,0,1-0.2,1V22c0.5,0,0.4-0.9,0.4-1.2c0,0,0.1,0,0.1,0c0.1,0,0.1,0,0.2,0c0,0.4,0,1,0.4,1.1l0-0.2
			c-0.2,0-0.3-0.4-0.2-0.9c0.1,0,0.2,0,0.2,0.1c-0.1,0.7,0.2,0.9,0.4,0.9l0-0.2c-0.2-0.1-0.3-0.4-0.2-0.7c0.1,0,0.2,0,0.3,0
			c0.6,0,0.9-1,1-1.5c0.2-1,0.1-2,0.6-2.9c0.2,0.2,0.6,0.7,1.1,1.5c0,0,0.1,0.4,0.1,0.4c0.1,0.2,0.4,0.4,0.7,0.4
			c0.2,0.1,0.5,0.5,0.6,0.7c0.3,0.5,0.7,1.1,1,1.6c0.4,0.6,0.7,1.2,1.1,1.8c0.3,0.5,0.8,1,1.2,1.5c0,0,0,0-0.1,0
			c-1,0-1.9,0.8-1.8,1.9c0.1,0.6,0.5,1,1,1.2c0.2,0.1,0.4,0.1,0.7,0.1c0.3,0,0.6-0.2,0.9-0.1c0.7,0.1,1.2,0,1.4-0.1
			c0.3,0.2,0.6,0.2,0.9,0.2c0.3-0.1,0.6-0.2,0.9-0.2c0.7,0.1,1.3,0.3,1.9-0.1c0.4,0.2,0.8,0.1,1.2,0c0.2-0.1,0.5,0,0.7,0
			c0.3,0,0.7,0,1-0.1c0.2,0.1,0.4,0.2,0.6,0.2c0.5,0,1-0.2,1.5,0c0.5,0.2,1.1,0.2,1.6-0.1c0.2,0.1,0.6,0.2,0.9,0.2
			c0.3,0,0.6-0.1,0.9,0c0.3,0.2,1,0.1,1.3,0c0.1,0,0.2,0.1,0.3,0.1c0.5,0.1,0.9-0.1,1.4,0c0.7,0.2,1.1-0.5,1.2-1.1
			c0.1-0.7-0.3-1.3-0.8-1.7c-0.2-0.2-0.6-0.4-1.3-0.3c0.4-0.5,0.8-0.9,1.1-1.4c0.4-0.6,0.8-1.2,1.1-1.8c0.3-0.5,0.7-1.1,1-1.6
			c0.1-0.2,0.4-0.7,0.7-0.8c0.2-0.1,0.6-0.2,0.7-0.4c0-0.1,0.1-0.4,0.1-0.4c0.5-0.8,0.9-1.3,1.1-1.5c0.5,0.9,0.4,2,0.6,2.9
			c0.1,0.4,0.4,1.5,1,1.5c0.1,0,0.2,0,0.3,0c0,0.3,0,0.6-0.2,0.7l0,0.2c0.2,0,0.4-0.2,0.4-0.9c0.1,0,0.1-0.1,0.2-0.1
			c0,0.5-0.1,0.8-0.2,0.9l0,0.2c0.4-0.1,0.4-0.7,0.4-1.1c0.1,0,0.1,0,0.2,0c0,0,0.1,0,0.1,0c0,0.3,0,1.2,0.4,1.2v-0.2
			c-0.3,0-0.2-0.8-0.2-1c0.1,0,0.1,0,0.2,0.1c0,0.3,0.1,1,0.6,0.9l0-0.2c-0.3,0-0.3-0.6-0.3-0.7c0,0,0.1,0,0.2,0
			c0,0.2,0.1,0.8,0.5,0.7l0-0.2c-0.2,0-0.3-0.4-0.3-0.6c0.5-0.2,0.4-0.9,0.3-1.3l0-0.1c0-0.1,0-0.3,0.1-0.4c0.2-0.2,0.2-0.6,0.4-0.8
			c0.1-0.2,0-0.3-0.2-0.2c-0.3,0.2-0.6,0.5-0.8,0.8c0-0.3,0-0.6-0.1-0.9c0-0.2,0-0.6-0.2-0.7l0,0h-0.1c-0.2,0-0.5,1.3-0.5,1.3
			s0,0,0,0c-0.1-0.2-0.3-0.4-0.5-0.6c-0.1-0.1-0.2-0.1-0.3-0.2c-0.1-0.5-0.2-1.1-0.6-1.5c-0.3-0.3-0.8-0.5-1.2-0.3
			c-0.2,0-0.5-0.1-0.7,0c-0.6,0.3-0.5,0.4-0.2-0.1c0.1-0.2,0.1-0.4,0.3-0.6c0.3-0.3,0.6-0.4,0.6-0.9c0.2-0.2,0.7-0.8,0.7-0.9
			c0.1-0.2,0.3-0.4,0.3-0.7c0.1-0.1,0.1-0.4,0.2-0.5c0,0.4-0.1,1.9,0,2.3c0.1,0.3,0.3,0.4,0.7,0.4l0,0l0,0c-0.1,0.1-0.3,0.6-0.2,0.7
			c0.1,0.1,0.2,0.2,0.3,0.1v-0.2c0,0-0.1,0-0.1-0.1c0-0.1,0.1-0.3,0.2-0.5c0,0,0-0.1,0.1-0.1c0,0,0.1,0,0.1,0c0,0.2-0.1,0.4-0.1,0.7
			c0,0.2,0.1,0.2,0.3,0.2v-0.2c0,0-0.1,0-0.1,0s0,0,0-0.1c0-0.2,0.1-0.4,0.1-0.6c0.1,0,0.1,0,0.2,0c-0.1,0.2-0.2,0.5-0.1,0.7
			c0,0.2,0.1,0.5,0,0.7c-0.1,0.2-0.2,1.2,0.2,1c0.2-0.1,0.2-0.3,0.2-0.4h-0.2c0,0.1,0,0.2-0.1,0.2c-0.2,0,0-0.7,0-0.8
			c0.1-0.2,0.1-0.6,0-0.8c-0.1-0.2,0.1-0.6,0.1-0.8h0c-0.1,0.2-0.1,0.4,0,0.6c0,0.1,0.1,0.3,0.2,0.3v-0.2c0,0,0,0,0-0.1
			c-0.1-0.2-0.1-0.4,0-0.6c0,0,0.1,0,0.1,0c0,0.2,0,0.4,0.1,0.6c0,0.1,0.1,0.2,0.3,0.2v-0.2c0,0,0,0,0,0.1c0.1,0.1,0.2,0.1,0.4,0
			l-0.1-0.1c0,0,0,0-0.1,0c0,0,0-0.1,0-0.5v0c0,0,0-0.1,0-0.1c0.2-0.2,0.2-0.6,0.2-0.8c0-0.3,0.1-0.7,0.2-1c0.2-0.3,0-0.3-0.2-0.2
			c-0.1,0.1-0.3,0.2-0.4,0.4l0,0c0,0,0-0.1,0-0.4c0-0.9-0.5-1.4-0.9-1.7l0,0c-0.2-0.2-0.3-0.2-0.4-0.2c-0.1,0-0.2,0-0.3,0.1
			c-0.3,0-0.6-0.1-0.9,0c-0.3,0.1-0.6,0.4-0.7,0.7c-0.4,0.7-0.6,1.4-0.8,2.2l0,0c-0.1,0-0.1,0.1-0.1,0c0.3-1.4,0.1-2.3,0.2-2.4
			c0.4-0.1,0.7-0.3,0.7-0.7l0,0c0.1-0.2,0.2-0.5,0.4-1c0.1-0.4,0.5-1.1,0.7-1.2c0.4-0.3,0.7-1.6,1.4-1.7c0.2,0,0.3,0,0.5,0
			c0.1,0-0.1-0.2-0.2-0.2c-0.4-0.3-1-0.2-1.5,0c-0.2,0.1-0.3,0.3-0.4,0.4c-0.3,0.3-0.5,0.6-0.6,1c-0.2,0.4-0.2,0.8-0.2,1.2
			c0,0.3-0.1,0.8-0.3,0.9c0,0,0,0-0.1,0c-0.2,0-0.5,0-0.6,0.2c0,0.1-0.1,0.1-0.2,0.1c-0.1,0,0-0.3,0-0.3c0-0.2-0.2-1.1,0-1.2
			c0.3,0,0.3-0.5,0.2-0.7c0.1-0.7,0.3-1.4,0.6-2c0.2-0.4,0.4-0.9,0.8-1.2c0.1-0.1,0.3-0.3,0.6-0.2c0.1,0,0.2,0.2,0.3,0.1
			C68.3,5.1,68,4.9,68,4.9c-0.2-0.1-0.5-0.2-0.7-0.1c-0.4,0-0.8,0.2-1,0.5c-0.4,0.5-0.5,1.2-0.5,1.8c0,0.2-0.2,1-0.2,1.2
			c-0.3,0-0.3,0.3-0.3,0.5C65.3,8.9,65,9.2,65,9c-0.1-0.3-0.2-0.5-0.3-0.8c-0.1-0.3,0.2-0.6,0.1-0.9c0,0,0,0,0,0.1
			c0.1,0.3,0-1.5,0.1-1.9c0.1-0.6,0.1-0.7,0.2-0.7c0.1-0.2,0.1-0.3,0.3-0.5c0.2-0.1,0.2-0.3,0.4-0.3c0.1,0-0.2-0.1-0.3,0
			c-0.1,0-0.9,0-1.1,0.9c0,0.1,0,0.6,0,0.9c0,0.4,0.1,0.9,0.1,1.4c-0.1,0,0,0-0.1,0.1c-0.1,0-0.1,0.2-0.1,0.3c0,0,0,0.3-0.1,0.1
			c-0.1-0.3-0.4-0.4-0.6-0.7c-0.1-0.2,0-0.6-0.1-0.8c0-0.3-0.1-1.7,0.1-2c0.1-0.2,0.3-0.3,0.5-0.5c0.1-0.1,0.4-0.4,0.3-0.5
			c-0.1-0.1-0.6,0-0.7,0c-0.3,0.1-0.7,0.3-0.8,0.7c-0.1,0.1,0,0.7,0,0.9c0.1,0.1,0,0.8,0.1,1.1C63,5.9,63,5.9,63,6
			c-0.1,0-0.1,0-0.1,0.1c0,0.1,0,0.5,0,0.5c-0.2,0.1-0.6-0.3-0.7-0.5C61.9,6,62.3,5.5,62,5.4c-0.3-0.5-0.2-1.1-0.1-1.7
			c0-0.2,0.1-0.7,0-1c0-0.1-0.2-0.3-0.2-0.1c0,0.2-0.1,0.4-0.1,0.6c-0.1,0.2-0.2,0.4-0.3,0.7c-0.1,0.5,0.3,1,0.4,1.4
			c-0.3,0,0,0.6-0.1,0.6c-0.4,0-0.7-0.3-0.7-0.6c0,0-0.1-0.1-0.1-0.1c-0.1-0.3-0.3-0.4-0.3-0.9c0-0.2,0-0.4,0-0.4
			c0.1-0.3-0.2-1-0.3-0.9c0,0.1-0.2,0.4-0.2,0.6c-0.1,0.3,0,0.8,0.1,1c0.1,0.1,0.3,0.4,0.3,0.7c-0.2,0,0,0.3,0,0.4
			c0.1,0.1-0.4-0.1-0.6-0.2c-0.2-0.1-0.2-0.2-0.3-0.4c0,0,0,0,0,0h0c0-0.2-0.4-0.5-0.4-0.6c0-0.3,0-0.6-0.1-0.8
			c0-0.1-0.3-0.3-0.3-0.3c-0.1,0.2-0.2,0.6-0.2,0.7c0,0.2,0,0.6,0.5,1c0,0.1,0.1,0.2,0.1,0.3c0,0.1-0.5,0.1-0.6,0
			c-0.1-0.1-0.3-0.3-0.5-0.2c-0.1,0.1,0.1,0.3,0,0.3c-0.3,0-0.8,0.1-1,0.3c-0.1,0.1,0.4,0,0.4-0.1c0.7-0.1,1.5-0.1,2.1,0.1
			c5.3,1.5,5.8,5.8,4.6,10c0-0.4-0.2-0.8-0.6-0.9c0.9-0.3,0.7-1.7-0.3-1.7c0.9-0.6,0.1-2-0.8-1.5c0.5-0.9-0.8-1.7-1.4-1
			c0-0.9-1.3-1.2-1.7-0.4c-0.2-0.9-1.6-0.8-1.7,0.2c-0.5-0.8-1.7-0.3-1.6,0.6c-0.7-0.6-1.7,0.1-1.4,0.9h-0.4c0.2-0.6,0-1.2-0.4-1.7
			c-0.2-0.3-0.6-1-0.8-1.6c0,0,0.1-0.1,0.1-0.1c0.4,0.2,1.1,0.6,1.1,0.6l0.2,0.1V7.1l-0.2,0.1c0,0-0.6,0.4-1.1,0.6
			c0-0.1-0.1-0.1-0.1-0.1c0.2-0.5,0.5-1.1,0.6-1.1L54,6.5h-2.3l0.1,0.2c0,0,0.4,0.6,0.6,1c-0.1,0-0.1,0.1-0.2,0.1
			c-0.4-0.2-1-0.6-1-0.6L51,7.1v2.3l0.2-0.1c0,0,0.6-0.4,1-0.6c0,0,0.1,0.1,0.1,0.1l-0.8,1.7c-0.3,0.4-0.4,1-0.2,1.5h-0.6
			c0.3-0.8-0.7-1.6-1.4-0.9c0.1-0.9-1.1-1.3-1.6-0.6c-0.1-0.9-1.4-1.1-1.7-0.2c-0.4-0.9-1.7-0.6-1.7,0.4c-0.7-0.8-1.9,0.1-1.4,1
			c-1-0.5-1.7,0.9-0.8,1.5c-1,0-1.2,1.4-0.3,1.7c-0.9,0.3-0.7,1.6,0.2,1.7c-0.2,0.1-0.4,0.4-0.4,0.7c-1.8-4.6-1.9-9.7,4.1-11.4
			c0.6-0.2,1.5-0.2,2.1-0.1c0,0,0.5,0.1,0.5,0.1c-0.2-0.2-0.7-0.3-1-0.3c-0.1,0,0.1-0.2,0-0.3c-0.2-0.1-0.4,0-0.5,0.2
			c-0.1,0.1-0.6,0-0.6,0c0-0.1,0.2-0.2,0.1-0.3c0.5-0.4,0.5-0.8,0.5-1c0-0.1-0.1-0.5-0.2-0.7c0,0-0.3,0.2-0.3,0.3
			c-0.1,0.2-0.1,0.5-0.1,0.8c0,0.1-0.4,0.3-0.4,0.6h0c0,0,0,0,0,0c0,0.1-0.1,0.3-0.3,0.4c-0.2,0.1-0.7,0.3-0.6,0.2
			c0-0.1,0.2-0.4,0-0.4c0.1-0.2,0.3-0.6,0.3-0.7c0.1-0.3,0.2-0.8,0.1-1c-0.1-0.1-0.2-0.4-0.2-0.6c0-0.1-0.3,0.6-0.3,0.9
			c0,0.1,0,0.3,0,0.4c0.1,0.4-0.2,0.6-0.3,0.9c0,0-0.1,0-0.1,0.1c-0.1,0.4-0.3,0.5-0.7,0.6c-0.2,0,0.2-0.5-0.1-0.6
			C44,4.9,44.3,4.5,44.3,4c0-0.3-0.2-0.4-0.3-0.7c-0.1-0.2-0.1-0.4-0.2-0.7c-0.1-0.2-0.2,0.1-0.2,0.1c-0.1,0.3-0.1,0.8,0,1
			c0.1,0.5,0.2,1.2-0.1,1.7c-0.2,0.1,0,0.6-0.2,0.8c-0.1,0.1-0.5,0.6-0.7,0.5c0,0,0-0.4,0-0.5C42.6,6,42.5,6,42.4,6
			c0-0.1,0-0.1,0.1-0.2c0.1-0.2,0.1-0.9,0.1-1.1c0.1-0.2,0.1-0.8,0-0.9c-0.1-0.3-0.4-0.6-0.7-0.7c-0.1,0-0.7-0.2-0.8-0.1
			c0,0.1,0.3,0.4,0.3,0.5c0.2,0.2,0.3,0.3,0.5,0.5c0.2,0.3,0.1,1.7,0.1,2C42,6.2,42,6.3,42,6.4c0,0.1,0,0.3,0,0.5
			c-0.1,0.3-0.5,0.4-0.6,0.7c-0.1,0.1-0.1,0-0.1-0.1c0-0.1,0-0.3-0.1-0.3C41,7.1,41,7.1,41,7.1c0.1-0.4,0.1-0.9,0.1-1.4
			c0-0.3,0-0.8,0-0.9c-0.2-0.9-1.1-0.9-1.1-0.9c-0.1,0-0.4,0-0.3,0c0.1,0,0.1,0.2,0.4,0.3c0.3,0.1,0.2,0.3,0.3,0.5
			c0,0.1,0.1,0.2,0.2,0.7c0,0.4-0.1,2.2,0.1,1.9c0,0,0,0,0-0.1c0,0.2,0,0.4,0.2,0.8c0,0.1-0.1,0.4-0.2,0.5c0,0.1-0.1,0.5-0.2,0.5
			c-0.3-0.1-0.1-0.9-0.5-0.8C39.8,8,39.6,7.2,39.6,7c0-0.6-0.1-1.3-0.5-1.8c-0.2-0.3-0.6-0.4-0.9-0.5c-0.2,0-0.5,0-0.7,0.1
			c-0.1,0-0.4,0.3-0.2,0.3c0.1,0.1,0.2-0.1,0.3-0.1C37.8,5,38,5.1,38.2,5.3c0.3,0.3,0.6,0.8,0.8,1.2c0.3,0.6,0.5,1.3,0.6,2
			c-0.1,0.2,0,0.7,0.2,0.7c0.3,0.1,0.1,1,0,1.2c0,0.1,0,0.2,0,0.3s-0.2,0.1-0.2,0c0-0.2-0.4-0.3-0.6-0.2c0,0,0,0-0.1,0
			c-0.2-0.2-0.3-0.7-0.3-0.9c0-0.4-0.1-0.8-0.2-1.2c-0.2-0.3-0.4-0.7-0.6-1c-0.1-0.1-0.3-0.3-0.4-0.4c-0.4-0.2-1-0.3-1.5,0
			c0,0-0.2,0.1-0.2,0.2c0.1,0.1,0.4,0,0.6,0c0.7,0.1,1,1.3,1.4,1.7c0.2,0.2,0.6,0.8,0.7,1.2c0.2,0.5,0.3,0.8,0.4,1l0,0
			c0,0.4,0.3,0.6,0.7,0.7c0.1,0-0.1,1,0.2,2.4c0,0.1-0.1,0-0.1,0l0,0c-0.2-0.8-0.4-1.6-0.8-2.2c-0.2-0.2-0.3-0.5-0.7-0.6
			c-0.3-0.1-0.7,0-1,0c-0.2-0.2-0.6-0.1-0.8,0.1l0,0c-0.3,0.3-0.8,0.8-0.9,1.7c0,0.2,0,0.3,0,0.4l0,0c-0.1-0.1-0.2-0.2-0.3-0.3
			c-0.1-0.1-0.5-0.2-0.3,0.1c0.1,0.3,0.2,0.6,0.3,1c0,0.3,0,0.7,0.2,0.9c0,0,0,0.1,0,0.1v0c0,0.4,0,0.5,0,0.5c-0.1,0.1-0.1,0-0.1,0
			l-0.1,0.1c0.1,0.1,0.2,0.1,0.4,0c0,0,0,0,0-0.1V16c0.2,0,0.2-0.1,0.3-0.2c0.1-0.2,0.1-0.4,0.1-0.6c0,0,0.1,0,0.1,0
			c0.1,0.2,0.1,0.4,0,0.6c0,0.1,0,0.1,0,0.1V16c0.2,0,0.2-0.2,0.2-0.3c0.1-0.2,0.1-0.4,0-0.6h0c0.1,0.2,0.2,0.5,0.1,0.7
			c0,0.3-0.1,0.5,0,0.8c0.1,0.1,0.2,0.7,0,0.8c-0.1,0-0.1-0.1-0.1-0.2H36c0,0.1,0,0.3,0.2,0.4c0.4,0.2,0.3-0.8,0.2-1
			c-0.1-0.2,0-0.5,0-0.7c0-0.3-0.1-0.5-0.1-0.7c0.1,0,0.1,0,0.2,0c0,0.2,0.1,0.4,0.1,0.6c0,0,0,0.1,0,0.1c0,0,0,0-0.1,0v0.2
			c0.2,0,0.2-0.1,0.3-0.2c0-0.2-0.1-0.4-0.1-0.7c0,0,0.1,0,0.1,0c0,0,0,0.1,0.1,0.1c0.1,0.2,0.2,0.5,0.2,0.5
			c-0.1,0.1-0.1,0.1-0.1,0.1v0.2c0.1,0,0.2-0.1,0.3-0.1c0.1-0.2-0.1-0.6-0.2-0.7l0,0l0,0c0.3,0,0.5-0.2,0.7-0.4
			c0.2-0.5,0.1-1.9,0-2.3c0,0,0,0,0.1,0.1c0.1,0.1,0.1,0.3,0.1,0.4c0.1,0.2,0.2,0.4,0.3,0.7c0.1,0.1,0.5,0.7,0.7,0.9
			c0,0.4,0.3,0.7,0.6,0.9c0.1,0.1,0.2,0.4,0.3,0.6c0.2,0.6,0.3,0.4-0.2,0.1c-0.2-0.1-0.5,0-0.7,0c-0.4-0.2-0.9,0-1.2,0.3
			c-0.4,0.4-0.5,1-0.6,1.5c-0.1,0.1-0.2,0.1-0.3,0.2c-0.2,0.2-0.3,0.4-0.5,0.6c0,0,0,0,0,0c0,0-0.3-1.3-0.5-1.3h-0.1l-0.1,0
			c-0.1,0.1-0.1,0.5-0.2,0.7c0,0.3,0,0.6-0.1,0.9c-0.2-0.3-0.5-0.6-0.8-0.8c-0.2-0.1-0.3,0-0.2,0.2C34.2,18.2,34.3,18.3,34.3,18.4
			 M67.9,18.3c0.4,0.1,0.9,0.6,1.1,0.7c0.1,0.1,0,0,0-0.1c0,0-0.3-0.5-0.3-1l0,0c0.1,0.1,0.3,0.2,0.7,0.7c0.2,0.4,0.3,0,0.4-0.2
			c0.1-0.3,0.2-0.6,0.3-0.9c0.1,0.6,0.1,1.1,0.1,1.6c0,0.3,0.3-0.1,0.3-0.1c0.2-0.2,0.4-0.4,0.6-0.7c-0.1,0.2-0.2,0.5-0.3,0.7
			c-0.1,0.1-0.1,0.4-0.1,0.6l0,0.1c0.1,0.3,0.2,0.9-0.1,1.1c-0.3,0.2-0.7,0-1.1,0c-0.2,0-0.4,0-0.6,0.1c-0.2,0.1-0.3,0.1-0.4,0.1
			c0,0-0.1,0-0.2-0.1c0.1,0,0.4,0,0.4-0.6c0-0.2-0.2-1.2-0.6-1.5C68,18.6,67.8,18.3,67.9,18.3 M65.7,16.8
			C65.7,16.8,65.7,16.8,65.7,16.8c0.2-0.4,0.3-0.7,0.8-0.7c0.2,0.1,0.4,0.2,0.3,0.3l0,0l0,0l-0.1,0c-0.1,0.1-0.3,0.3-0.6,0.7
			c-0.2,0.2-0.3,0.3-0.4,0.3C65.6,17.4,65.7,16.9,65.7,16.8 M70,15.7C70,15.5,70,15.3,70,15.1l0,0c0,0,0,0,0.1,0c0,0,0,0,0,0.1v0
			C70,15.5,70,15.7,70,15.7C70.1,15.8,70.1,15.8,70,15.7 M68.4,13c0.1,0,0.2,0.4,0.3,0.5c0.1,0.1,0.4,0.3,0.3,0.5
			c0.1-0.1,0.1-0.4,0.2-0.6c0.1-0.2,0.3-0.4,0.3-0.6c0,0.1,0.1,0.4,0.2,0.4c0.1,0.1,0.2,0.8,0.1,0.9c0-0.1,0.1-0.3,0.2-0.5
			c0,0,0.1,0,0.1-0.1c0-0.1,0.2-0.2,0.3-0.3c-0.3,0.5-0.1,1.1-0.3,1.6c-0.1,0.2-0.5,0.1-0.7,0.1c-0.3,0-0.6-0.1-0.9-0.1
			c-0.1,0-0.2,0-0.2-0.1c-0.1-0.1,0.1,0,0.1,0c0.1,0,0.2,0,0.2-0.2c0-0.1-0.1-0.2-0.2-0.3c-0.1-0.2-0.2-0.4-0.2-0.6
			C68.3,13.5,68.4,13,68.4,13 M66.9,12c0.3-0.5,0.6-0.8,0.9-0.7l0,0c0.3,0.2,0.4,0.7,0.4,0.8c-0.2-0.2-0.4,0.4-0.5,0.5
			c-0.2,0.2-0.7,0.7-1,0.8C66.5,13.5,66.7,12.5,66.9,12 M54.4,7.7V9c-0.2-0.1-0.6-0.3-0.9-0.4c0-0.1,0-0.2,0-0.3
			C53.8,8,54.2,7.8,54.4,7.7 M52.1,8.5c-0.3,0.1-0.6,0.3-0.9,0.4V7.7c0.2,0.1,0.6,0.3,0.9,0.4C52,8.3,52,8.4,52.1,8.5 M41.9,18
			c0.4,0.3,1,0.2,1.2-0.2l0,0c0.2,0.4,0.4,0.9,0.6,1.3c-0.3,0.4,0,1.2,0.6,1.3c0.2,0.4,0.3,0.9,0.4,1.4l-0.1,0.6l0.3,0.5
			C43.8,21.6,42.8,19.9,41.9,18 M44.5,19c-0.1-0.1-0.3-0.1-0.4,0c-0.2-0.4-0.3-0.8-0.5-1.1l1.6-0.5C44.9,17.8,44.5,18.6,44.5,19
			 M45.6,18.2l0.6,2c-0.3-0.2-1-0.4-1.4-0.4c0,0,0-0.1,0-0.1c0-0.1-0.1-0.2-0.1-0.3C45,19.1,45.4,18.5,45.6,18.2 M44,19.2
			c0.3-0.3,0.6,0.2,0.6,0.4c0.1,0.3-0.1,0.6-0.4,0.4c-0.3-0.1-0.3-0.5-0.2-0.8C44,19.3,44,19.2,44,19.2 M45.3,27.3
			c-0.4-0.1-0.9,0.2-1.3,0.1c-0.5,0-0.9-0.4-1-0.9c-0.2-0.9,0.6-1.7,1.5-1.7c0.4,0,0.7,0.3,0.9,0.6c0.4,0.6,0.5,1.3,1,1.8
			C46.2,27.4,45.8,27.4,45.3,27.3 M52.2,27c-0.3-0.1-0.6,0-0.7,0c-0.6,0.2-1,0-1.1-0.1c-0.3-0.2-0.6-0.5-0.8-0.9
			c-0.2-0.3-0.3-0.7-0.6-1C49,25,48.9,25,48.8,24.9c0.1,0,0.2-0.1,0.3-0.1s0.5-0.2,1,0c0.3,0.2,0.7-0.1,1.1,0c0.6,0.1,1,0.6,1.1,1.1
			c0.1,0.2,0.2,0.8,0.7,1.2C52.8,27.1,52.4,27.1,52.2,27 M59,27.4c-0.3-0.2-0.7-0.1-1-0.1c-1.4,0.1-1.6-1.7-2.4-2.4
			c0.3-0.1,0.7-0.1,1.1,0c0.3,0.1,0.5,0.2,0.8,0.1c0.2,0,0.5-0.1,0.7,0c0.4,0.2,0.7,0.8,0.9,1.1c0.2,0.4,0.4,0.9,0.8,1.2
			C59.5,27.5,59,27.4,59,27.4 M60.6,24.6c-0.3,0.1-0.7,0-1-0.1c-0.4-0.1-1,0-1.3,0.2c-0.3-0.1-0.6-0.1-0.9-0.1c-0.4,0-0.6-0.1-1-0.1
			c-0.4-0.1-0.8-0.1-1.2,0.1c-0.7-0.3-1.3-0.1-1.3-0.1c-0.4,0.1-0.7,0-1.2-0.1c-0.3,0-0.7,0-1,0.1c-0.5-0.3-1-0.1-1-0.1
			c-0.1,0-0.3,0.1-0.4,0c-0.6-0.3-1-0.1-1.2,0c-0.4,0.2-0.5,0.2-0.6,0.2h0c-0.6-0.3-1-0.2-1.3-0.1c-0.1,0-0.3,0.1-0.4,0
			c-0.4-0.1-1.1-0.2-1.7,0.2c-0.1,0-0.1-0.1-0.2-0.1c-0.2-0.2-0.2-0.3-0.2-0.6c0.1-0.2,0.2-0.4,0.3-0.5c0.2-0.2,0.4-0.2,0.6-0.2
			c0.1,0,0.2,0,0.3-0.1c0.1,0,0.2,0,0.3,0c0,0,0.1,0,0.1,0c0.1,0.1,0.2-0.1,0.3-0.1c0.2-0.1,0.4-0.1,0.6,0c0,0,0.1,0,0.1,0
			c0.1,0.1,0.2,0,0.3-0.1c0.2-0.1,0.3-0.1,0.5,0c0,0,0.1,0,0.1,0l0,0c0.1,0.1,0.2,0,0.3-0.1c0.2-0.1,0.3-0.1,0.5,0c0,0,0.1,0,0.1,0
			c0.1,0.1,0.2,0,0.3-0.1c0.1-0.1,0.3-0.1,0.5,0c0.2,0,0.2,0.1,0.3,0c0.2-0.1,0.4-0.1,0.6,0h0l0,0c0.1,0.1,0.2,0,0.3,0
			c0.2,0,0.3-0.1,0.5,0c0,0,0.1,0,0.1,0.1c0.1,0.1,0.2,0,0.3,0c0.2-0.1,0.4,0,0.7,0.1c0.1,0,0.2-0.1,0.3-0.1c0.2,0,0.3,0,0.5,0
			c0,0,0.1,0,0.1,0.1c0.1,0,0.2-0.1,0.3-0.1c0.2-0.1,0.3-0.1,0.5,0c0,0,0,0,0.1,0l0,0c0.1,0.1,0.2,0,0.3,0c0.2,0,0.3,0,0.5,0
			c0,0,0.1,0,0.1,0.1c0.1,0.1,0.2,0,0.3,0c0.1,0,0.3,0,0.5,0c0.1,0.1,0.2,0.1,0.4,0c0.2-0.1,0.3,0,0.5,0c0,0,0.1,0,0.2,0.1
			c0.1,0.1,0.2,0,0.3,0c0.1,0,0.3,0,0.4,0c0,0,0.1,0.1,0.2,0.1c0.1,0.1,0.2,0,0.3,0c0.1,0,0.3,0,0.4,0c0,0,0.1,0.1,0.2,0.1
			c0.1,0.1,0.5-0.1,0.6,0c0.1,0,0.3,0.1,0.4,0.1c0.1,0.1,0.2,0,0.3,0.1C60.7,23.9,60.7,24.3,60.6,24.6 M60.6,21.6l-1.4,0.5l1.2,1
			c-0.1,0.1-0.2,0.2-0.2,0.3c-0.3-0.1-0.6-0.1-0.8,0c-0.1,0-0.1-0.1-0.2-0.1c-0.2-0.1-0.5-0.1-0.8,0c-0.1,0-0.1-0.1-0.2-0.1
			c-0.2-0.1-0.5-0.1-0.8,0c0,0-0.1,0-0.1-0.1l0,0c-0.4-0.2-0.7,0-0.8,0l-0.1,0l0,0c-0.3-0.1-0.5-0.1-0.8,0c0,0-0.1,0-0.1,0l0,0
			c-0.3-0.1-0.7,0-0.8,0c0,0-0.1,0-0.1-0.1c-0.3-0.1-0.6,0-0.8,0.1c0,0-0.1-0.1-0.1-0.1c-0.3-0.1-0.5-0.1-0.8,0.1
			c0,0-0.1-0.1-0.1-0.1c-0.2-0.1-0.5-0.1-0.7,0.1c0,0-0.2-0.1-0.2-0.1c-0.2,0-0.5,0-0.7,0.1c-0.1,0-0.1-0.1-0.2-0.1
			c-0.4-0.1-0.7,0-0.8,0.1c0,0-0.1-0.1-0.1-0.1c-0.3-0.1-0.5,0-0.7,0.1c-0.1,0-0.1-0.1-0.2-0.1c-0.3-0.1-0.5,0-0.7,0.1
			c-0.1,0-0.2-0.1-0.2-0.1l0,0c-0.3-0.1-0.5,0-0.8,0.1c-0.1,0-0.1-0.1-0.2-0.1c-0.3-0.1-0.6,0-0.9,0.2c-0.1,0-0.1-0.1-0.1-0.1
			c-0.1,0-0.2-0.1-0.4,0c-0.1,0-0.2,0.1-0.3,0.1c-0.1,0-0.3,0-0.4,0l0,0c0-0.1,0-0.2,0-0.2l1.1-0.9l-1.4-0.5c0-0.1,0-0.1,0-0.2
			l0.1-0.4c0.4,0.4,1.2,0.4,1.7,0.4c0.6,0,1.3-0.2,1.7-0.7l0.4,0.6l0.2-0.7c0.4,0.5,1.2,0.5,1.8,0.4c0.6-0.1,1.4-0.3,1.7-0.9
			l0.2,0.7l0.1,0.3l0.3-0.9c0.3,0.6,1.1,0.8,1.7,0.9c0.6,0.1,1.4,0.1,1.8-0.4l0.2,0.7l0.4-0.6c0.3,0.5,1,0.7,1.6,0.7
			c0.6,0.1,1.3,0,1.8-0.4l0.1,0.4C60.6,21.4,60.6,21.5,60.6,21.6 M60.8,21l-0.1-0.6l-0.1,0.2c-0.2,0.5-1.2,0.5-1.6,0.5
			c-0.4,0-1.5-0.2-1.6-0.8l0-0.2l-0.4,0.6L56.6,20l-0.1,0.2c-0.2,0.6-1.3,0.6-1.8,0.4c-0.5-0.1-1.4-0.4-1.5-1l-0.1-0.4l-0.3,1
			l-0.2-0.6l-0.1-0.4l-0.1,0.4c-0.1,0.6-1,0.9-1.4,1c-0.5,0.1-1.7,0.2-1.9-0.4L48.9,20l-0.3,0.8l-0.4-0.6l0,0.2
			c-0.1,0.5-1,0.7-1.4,0.7c-0.5,0.1-1.5,0.1-1.8-0.4l-0.1-0.2L44.8,21c-0.1-0.2-0.2-0.5-0.2-0.7c0.1,0,0.2-0.1,0.2-0.2
			c0.7,1.2,2.6,1.1,3.3,0l1.1-0.1c0,0,0,0,0.1,0.1c0,0.1,0.1,0.2,0.3,0.3c1,0.6,2.7,0,2.8-1.2c0.2,0.2,0.6,0.2,0.8,0
			c0.1,1.4,1.9,1.9,3,1.1c0,0,0.1-0.1,0.1-0.1c0.1,0,0.1-0.1,0.2-0.1l1.1,0.1c0.7,1.1,2.6,1.2,3.3,0c0.1,0.1,0.1,0.2,0.2,0.2
			C60.9,20.5,60.8,20.8,60.8,21 M47.9,18.4L47.9,18.4c-0.1-0.2-0.5-1.1,0.1-2.4c0.9,1.1,0.8,2,0.7,2.3c0,0,0,0.1,0,0.1l0,0.1
			l0.1,0.1l0-0.1c0,0,0-0.1,0-0.1c0.2-0.6,1-0.6,1.3-0.1c0.3,0.4,0.2,1-0.2,1.3c0-0.3,0-0.9-0.4-1c-0.4-0.1-0.6,0.3-0.5,0.6
			l-1.3,0.2c0-0.3-0.3-0.7-0.7-0.5c-0.4,0.2-0.3,0.7-0.2,1.1c-0.4-0.3-0.7-0.8-0.5-1.2c0.2-0.6,0.9-0.8,1.3-0.2c0,0,0,0.1,0.1,0.1
			l0.1,0L47.9,18.4L47.9,18.4 M49.5,19.5c0,0.1-0.1,0.2-0.2,0.2l-1.4,0.2c-0.2,0-0.2-0.1-0.3-0.2c0-0.1,0.1-0.2,0.2-0.2l1.4-0.2
			C49.3,19.3,49.5,19.4,49.5,19.5 M52.2,18.8c-0.3,0.1-0.8,0.5-1.1,0.8v-2.1c0.2,0.2,0.7,0.6,1,0.8C52.1,18.4,52.1,18.6,52.2,18.8
			 M52.4,18.7c-0.1-0.1-0.1-0.3,0-0.5l0,0c0.3-0.4,0.9-0.2,0.9,0.3C53.3,19,52.6,19.1,52.4,18.7L52.4,18.7L52.4,18.7 M53.4,18.2
			c0.3-0.1,0.8-0.6,1.1-0.8v2.1c-0.2-0.2-0.7-0.7-1.1-0.8C53.5,18.6,53.5,18.4,53.4,18.2 M56.8,18.2C56.8,18.2,56.8,18.2,56.8,18.2
			c-0.1-0.3-0.2-1.2,0.7-2.3c0.6,1.3,0.2,2.2,0.1,2.4c0,0,0,0,0,0.1l0,0.1l0.1,0.1l0.1,0c0,0,0,0,0.1-0.1c0.6-0.8,1.6,0.1,1.3,0.9
			c-0.1,0.2-0.2,0.3-0.4,0.5c0,0-0.1,0.1-0.2,0.1c0.1-0.3,0.2-0.9-0.2-1.1c-0.1,0-0.1,0-0.2,0c-0.3,0-0.4,0.3-0.4,0.5c0,0,0,0,0,0.1
			l-1.3-0.2c0.1-0.3-0.1-0.7-0.5-0.6c-0.5,0.1-0.5,0.6-0.4,1c-0.3-0.3-0.4-0.6-0.4-1c0.1-0.4,0.5-0.7,0.9-0.7c0.3,0,0.5,0.2,0.6,0.4
			c0,0.1,0,0.1,0,0.1l0,0.1l0.1-0.1L56.8,18.2 M58,19.7C58,19.7,58,19.7,58,19.7L58,19.7c0,0.1,0,0.1-0.1,0.1c0,0,0,0-0.1,0.1
			c0,0,0,0,0,0c0,0-0.1,0-0.1,0l-1.4-0.2c-0.1,0-0.2-0.1-0.2-0.2c0-0.1,0.1-0.2,0.3-0.2l1.4,0.2C57.9,19.5,58,19.6,58,19.7 M62,17.9
			c-0.2,0.4-0.3,0.8-0.5,1.1c-0.1-0.1-0.3-0.1-0.4,0c0-0.5-0.4-1.2-0.6-1.6L62,17.9 M61.6,19.3c0.1,0.3,0,0.7-0.3,0.8
			c-0.4,0.1-0.4-0.6-0.2-0.8l0.1-0.1C61.2,19.2,61.4,19.1,61.6,19.3C61.5,19.2,61.5,19.3,61.6,19.3 M60.8,19.3
			c-0.1,0.1-0.1,0.3-0.1,0.4c-0.4,0-1,0.3-1.4,0.4l0.6-2C60.1,18.5,60.5,19.1,60.8,19.3 M61,22.4l-0.1-0.5c0.1-0.5,0.3-0.9,0.4-1.4
			c0.6-0.1,0.9-0.9,0.5-1.3c0.2-0.4,0.4-0.9,0.6-1.3l0,0l0,0l0,0c0.2,0.3,0.7,0.4,1.1,0.2C62.8,19.7,61.9,21.2,61,22.4 M63.1,17.9
			c-0.8,0-0.8-1.2,0-1.2S63.8,17.9,63.1,17.9 M64.3,16.2c-0.1,0.3-0.2,0.6-0.3,0.9c-0.1-0.2-0.2-0.4-0.4-0.5
			C63.8,16.6,64.1,16.4,64.3,16.2 M64.1,15.8c0,0.8-1.2,0.8-1.2,0C62.9,15,64.1,15,64.1,15.8 M63.5,13.6c0.8,0,0.8,1.2,0,1.2
			S62.8,13.6,63.5,13.6 M63,12c0.8,0,0.8,1.2,0,1.2S62.3,12,63,12 M61.9,10.8c0.8,0,0.8,1.2,0,1.2S61.2,10.8,61.9,10.8 M60.4,10.2
			c0.8,0,0.8,1.2,0,1.2C59.6,11.4,59.6,10.2,60.4,10.2 M58.8,10.1c0.8,0,0.8,1.2,0,1.2S58,10.1,58.8,10.1 M57.2,10.5
			c0.8,0,0.8,1.2,0,1.2C56.4,11.7,56.4,10.5,57.2,10.5 M55.7,11.2c0.8,0,0.8,1.2,0,1.2C55,12.4,55,11.2,55.7,11.2 M54.4,14.4
			c0-0.1,0.1-0.2,0.1-0.3c0.7,0,1.4-0.2,2.1-0.4c0.5-0.2,1-0.6,1.5-0.8c1.3-0.5,3-0.1,3.4,1.3c-0.3-0.2-0.8-0.3-0.8-0.3
			c-1.5-0.3-3,0.5-3,0.6c-0.2,0-0.5-0.1-0.7-0.1c-0.4-0.1-0.7-0.1-1.1-0.1c-0.6,0-1.1,0.2-1.6,0.6C54.3,14.6,54.4,14.5,54.4,14.4
			 M52.2,6.8h1.3C53.3,7,53.1,7.4,53,7.7c-0.1,0-0.2,0-0.4,0C52.5,7.4,52.3,7,52.2,6.8 M52.8,7.9c0.6,0,0.6,0.9,0,0.9
			S52.2,7.9,52.8,7.9 M52.5,9c0.2,0.1,0.3,0.1,0.5,0c0.1,0.3,0.3,0.7,0.4,1c-0.4-0.2-1-0.2-1.5,0C52.2,9.8,52.4,9.4,52.5,9
			 M52.8,10.2c0.4,0,0.8,0.2,1,0.4l0.1,0.1c0.5,0.7,0.3,1.8-0.5,2.2c0.3-0.7-0.6-1.3-1.1-0.7c-0.2,0.2-0.2,0.4-0.1,0.7
			C50.9,12.2,51.4,10.2,52.8,10.2 M53.3,14.7c0.2-0.2,0.2-0.6,0-0.8l0,0c0.1-0.2,0.2-0.4,0.1-0.7c0.2-0.1,0.3-0.1,0.4-0.2
			c-0.2,0.7-0.4,1.3-0.4,2C53.4,14.8,53.4,14.7,53.3,14.7 M52.3,13.8c-0.2,0.2-0.2,0.6,0,0.8c-0.1,0.1-0.1,0.2-0.1,0.3
			c-0.1-0.8-0.2-1.5-0.5-2.2c0.1,0.1,0.3,0.2,0.5,0.3C52.1,13.4,52.1,13.7,52.3,13.8 M52.3,15.9c0-0.6,1-0.6,1,0
			S52.3,16.6,52.3,15.9 M52.4,13.1c0.4-0.4,1.1,0.1,0.7,0.6l0,0c-0.2-0.1-0.5-0.1-0.7,0C52.3,13.5,52.3,13.3,52.4,13.1 M52.4,12.3
			c0.4-0.4,1.1,0.1,0.8,0.6c-0.2-0.2-0.5-0.2-0.8,0C52.3,12.7,52.3,12.5,52.4,12.3 M52.4,14c0.4-0.4,1.1,0.1,0.7,0.6
			c-0.2-0.2-0.5-0.2-0.7,0C52.3,14.4,52.3,14.1,52.4,14 M53.3,15c0,0.1,0,0.2-0.1,0.3c-0.2-0.1-0.5-0.2-0.8,0
			C52,14.7,53.2,14.3,53.3,15 M54.2,16.7c-0.3,0.3-0.8,0.8-1,1.3c-0.2-0.2-0.5-0.2-0.8,0c-0.2-0.4-0.7-1-1-1.3H54.2 M49.8,11.2
			c0.8,0,0.8,1.2,0,1.2S49,11.2,49.8,11.2 M48.4,10.5c0.8,0,0.8,1.2,0,1.2C47.6,11.7,47.6,10.5,48.4,10.5 M46.8,10.1
			c0.8,0,0.8,1.2,0,1.2S46,10.1,46.8,10.1 M45.2,10.2c0.8,0,0.8,1.2,0,1.2S44.4,10.2,45.2,10.2 M44.3,13.6c0.8-1.1,2.2-1.2,3.3-0.7
			c0.5,0.2,0.9,0.5,1.4,0.7c0.6,0.3,1.3,0.4,2,0.4c0.1,0.2,0.1,0.4,0.1,0.6c-0.4-0.3-1-0.5-1.6-0.6s-1.2,0.2-1.8,0.3l0,0
			c0,0-1.4-0.9-3-0.5c0,0-0.5,0.2-0.8,0.4C44.2,14,44.2,13.8,44.3,13.6 M43.6,10.8c0.8,0,0.8,1.2,0,1.2S42.9,10.8,43.6,10.8
			 M41.9,12.6c0-0.8,1.2-0.8,1.2,0S41.9,13.3,41.9,12.6 M41.4,14.1c0-0.8,1.2-0.8,1.2,0C42.6,14.9,41.4,14.9,41.4,14.1 M41.5,15.8
			c0-0.8,1.2-0.8,1.2,0C42.6,16.5,41.5,16.5,41.5,15.8 M42.5,16.8c0.8,0,0.8,1.2,0,1.2C41.7,17.9,41.7,16.8,42.5,16.8 M35.4,15.7
			c0,0.1,0,0.1-0.1,0.1c0-0.1,0.1-0.3,0-0.6v0c0,0,0,0,0-0.1c0,0,0,0,0.1,0l0,0C35.5,15.3,35.5,15.5,35.4,15.7 M37.2,13.6
			c0,0.2-0.1,0.4-0.2,0.6c-0.1,0.1-0.2,0.2-0.2,0.4c0,0.1,0.1,0.2,0.2,0.2c0,0,0.2,0,0.1,0c-0.1,0-0.1,0.1-0.2,0.1
			c-0.3,0-0.6,0-0.9,0.1c-0.2,0-0.6,0.1-0.7-0.1c-0.3-0.4-0.1-1.1-0.3-1.6c0.1,0.1,0.3,0.2,0.3,0.3c0,0,0.1,0.1,0.1,0.1
			c0.1,0.2,0.2,0.4,0.2,0.5c0-0.2,0.1-0.9,0.1-0.9c0-0.1,0.2-0.4,0.2-0.4c0,0.2,0.2,0.4,0.3,0.6c0.1,0.1,0.1,0.4,0.2,0.6
			c-0.1-0.1,0.3-0.4,0.3-0.5c0.1-0.1,0.2-0.5,0.3-0.5C37.1,13,37.2,13.5,37.2,13.6 M38.8,13.5c-0.3-0.1-0.8-0.6-1-0.8
			c0-0.1-0.2-0.8-0.5-0.5c-0.1-0.1,0.1-0.6,0.4-0.8l0,0c0.3,0,0.6,0.2,0.9,0.7C38.7,12.5,38.9,13.5,38.8,13.5 M39,16.1
			c0.4,0,0.6,0.2,0.8,0.6c0,0,0,0.1,0,0.1c0,0.1,0.1,0.6,0,0.6c-0.1,0-0.3-0.1-0.4-0.3c-0.2-0.3-0.4-0.6-0.6-0.7l-0.1,0l0,0l0,0
			C38.6,16.4,38.8,16.2,39,16.1 M34.6,18.4c0.2,0.2,0.3,0.3,0.4,0.5c0.1,0.1,0.3,0.3,0.3,0c0-0.5,0-1.1,0.1-1.6
			c0.1,0.3,0.2,0.6,0.3,0.9c0,0.2,0.2,0.7,0.4,0.3c0.2-0.3,0.4-0.5,0.7-0.7c0,0.5-0.3,1-0.3,1c0,0.1-0.1,0.2,0,0.1
			c0.2-0.1,0.7-0.7,1.1-0.7c0.1,0-0.1,0.3-0.2,0.3c-0.3,0.3-0.6,1.3-0.6,1.5c0,0.6,0.3,0.6,0.4,0.6c-0.1,0.1-0.2,0.1-0.2,0.1
			c-0.2,0-0.3-0.1-0.4-0.1c-0.2-0.1-0.4-0.1-0.6-0.1c-0.3,0-0.7,0.2-1,0.1c-0.4-0.2-0.2-0.8-0.2-1.1l0-0.1c0-0.1,0-0.4-0.1-0.6
			c-0.1-0.2-0.2-0.5-0.3-0.7C34.5,18.3,34.6,18.4,34.6,18.4"/>
	</g>
</g>
<g id="Layer_2">
</g>
</svg>
